<?xml version="1.0" encoding="utf-8" standalone="no"?>
<!DOCTYPE svg PUBLIC "-//W3C//DTD SVG 1.1//EN"
  "http://www.w3.org/Graphics/SVG/1.1/DTD/svg11.dtd">
<svg xmlns:xlink="http://www.w3.org/1999/xlink" width="864pt" height="288pt" viewBox="0 0 864 288" xmlns="http://www.w3.org/2000/svg" version="1.1">
 <metadata>
  <rdf:RDF xmlns:dc="http://purl.org/dc/elements/1.1/" xmlns:cc="http://creativecommons.org/ns#" xmlns:rdf="http://www.w3.org/1999/02/22-rdf-syntax-ns#">
   <cc:Work>
    <dc:type rdf:resource="http://purl.org/dc/dcmitype/StillImage"/>
    <dc:date>2025-05-21T18:03:35.614210</dc:date>
    <dc:format>image/svg+xml</dc:format>
    <dc:creator>
     <cc:Agent>
      <dc:title>Matplotlib v3.10.0, https://matplotlib.org/</dc:title>
     </cc:Agent>
    </dc:creator>
   </cc:Work>
  </rdf:RDF>
 </metadata>
 <defs>
  <style type="text/css">*{stroke-linejoin: round; stroke-linecap: butt}</style>
 </defs>
 <g id="figure_1">
  <g id="patch_1">
   <path d="M 0 288 
L 864 288 
L 864 0 
L 0 0 
z
" style="fill: #ffffff"/>
  </g>
  <g id="axes_1">
   <g id="patch_2">
    <path d="M 108 99.783529 
L 412.363636 99.783529 
L 412.363636 34.56 
L 108 34.56 
z
" style="fill: #ffffff"/>
   </g>
   <g id="matplotlib.axis_1">
    <g id="xtick_1">
     <g id="line2d_1">
      <defs>
       <path id="m6676b96ef1" d="M 0 0 
L 0 3.5 
" style="stroke: #000000; stroke-width: 0.8"/>
      </defs>
      <g>
       <use xlink:href="#m6676b96ef1" x="108" y="99.783529" style="stroke: #000000; stroke-width: 0.8"/>
      </g>
     </g>
    </g>
    <g id="xtick_2">
     <g id="line2d_2">
      <g>
       <use xlink:href="#m6676b96ef1" x="158.727273" y="99.783529" style="stroke: #000000; stroke-width: 0.8"/>
      </g>
     </g>
    </g>
    <g id="xtick_3">
     <g id="line2d_3">
      <g>
       <use xlink:href="#m6676b96ef1" x="209.454545" y="99.783529" style="stroke: #000000; stroke-width: 0.8"/>
      </g>
     </g>
    </g>
    <g id="xtick_4">
     <g id="line2d_4">
      <g>
       <use xlink:href="#m6676b96ef1" x="260.181818" y="99.783529" style="stroke: #000000; stroke-width: 0.8"/>
      </g>
     </g>
    </g>
    <g id="xtick_5">
     <g id="line2d_5">
      <g>
       <use xlink:href="#m6676b96ef1" x="310.909091" y="99.783529" style="stroke: #000000; stroke-width: 0.8"/>
      </g>
     </g>
    </g>
    <g id="xtick_6">
     <g id="line2d_6">
      <g>
       <use xlink:href="#m6676b96ef1" x="361.636364" y="99.783529" style="stroke: #000000; stroke-width: 0.8"/>
      </g>
     </g>
    </g>
    <g id="xtick_7">
     <g id="line2d_7">
      <g>
       <use xlink:href="#m6676b96ef1" x="412.363636" y="99.783529" style="stroke: #000000; stroke-width: 0.8"/>
      </g>
     </g>
    </g>
   </g>
   <g id="matplotlib.axis_2">
    <g id="ytick_1">
     <g id="line2d_8">
      <defs>
       <path id="m294f96ab02" d="M 0 0 
L -3.5 0 
" style="stroke: #000000; stroke-width: 0.8"/>
      </defs>
      <g>
       <use xlink:href="#m294f96ab02" x="108" y="76.863009" style="stroke: #000000; stroke-width: 0.8"/>
      </g>
     </g>
     <g id="text_1">
      <!-- −2 -->
      <g transform="translate(86.257812 80.662228) scale(0.1 -0.1)">
       <defs>
        <path id="DejaVuSans-2212" d="M 678 2272 
L 4684 2272 
L 4684 1741 
L 678 1741 
L 678 2272 
z
" transform="scale(0.015625)"/>
        <path id="DejaVuSans-32" d="M 1228 531 
L 3431 531 
L 3431 0 
L 469 0 
L 469 531 
Q 828 903 1448 1529 
Q 2069 2156 2228 2338 
Q 2531 2678 2651 2914 
Q 2772 3150 2772 3378 
Q 2772 3750 2511 3984 
Q 2250 4219 1831 4219 
Q 1534 4219 1204 4116 
Q 875 4013 500 3803 
L 500 4441 
Q 881 4594 1212 4672 
Q 1544 4750 1819 4750 
Q 2544 4750 2975 4387 
Q 3406 4025 3406 3419 
Q 3406 3131 3298 2873 
Q 3191 2616 2906 2266 
Q 2828 2175 2409 1742 
Q 1991 1309 1228 531 
z
" transform="scale(0.015625)"/>
       </defs>
       <use xlink:href="#DejaVuSans-2212"/>
       <use xlink:href="#DejaVuSans-32" transform="translate(83.789062 0)"/>
      </g>
     </g>
    </g>
    <g id="ytick_2">
     <g id="line2d_9">
      <g>
       <use xlink:href="#m294f96ab02" x="108" y="41.41483" style="stroke: #000000; stroke-width: 0.8"/>
      </g>
     </g>
     <g id="text_2">
      <!-- 0 -->
      <g transform="translate(94.6375 45.214048) scale(0.1 -0.1)">
       <defs>
        <path id="DejaVuSans-30" d="M 2034 4250 
Q 1547 4250 1301 3770 
Q 1056 3291 1056 2328 
Q 1056 1369 1301 889 
Q 1547 409 2034 409 
Q 2525 409 2770 889 
Q 3016 1369 3016 2328 
Q 3016 3291 2770 3770 
Q 2525 4250 2034 4250 
z
M 2034 4750 
Q 2819 4750 3233 4129 
Q 3647 3509 3647 2328 
Q 3647 1150 3233 529 
Q 2819 -91 2034 -91 
Q 1250 -91 836 529 
Q 422 1150 422 2328 
Q 422 3509 836 4129 
Q 1250 4750 2034 4750 
z
" transform="scale(0.015625)"/>
       </defs>
       <use xlink:href="#DejaVuSans-30"/>
      </g>
     </g>
    </g>
    <g id="text_3">
     <!-- v [m/s] -->
     <g transform="translate(64.275 84.78114) rotate(-90) scale(0.1 -0.1)">
      <defs>
       <path id="DejaVuSans-76" d="M 191 3500 
L 800 3500 
L 1894 563 
L 2988 3500 
L 3597 3500 
L 2284 0 
L 1503 0 
L 191 3500 
z
" transform="scale(0.015625)"/>
       <path id="DejaVuSans-20" transform="scale(0.015625)"/>
       <path id="DejaVuSans-5b" d="M 550 4863 
L 1875 4863 
L 1875 4416 
L 1125 4416 
L 1125 -397 
L 1875 -397 
L 1875 -844 
L 550 -844 
L 550 4863 
z
" transform="scale(0.015625)"/>
       <path id="DejaVuSans-6d" d="M 3328 2828 
Q 3544 3216 3844 3400 
Q 4144 3584 4550 3584 
Q 5097 3584 5394 3201 
Q 5691 2819 5691 2113 
L 5691 0 
L 5113 0 
L 5113 2094 
Q 5113 2597 4934 2840 
Q 4756 3084 4391 3084 
Q 3944 3084 3684 2787 
Q 3425 2491 3425 1978 
L 3425 0 
L 2847 0 
L 2847 2094 
Q 2847 2600 2669 2842 
Q 2491 3084 2119 3084 
Q 1678 3084 1418 2786 
Q 1159 2488 1159 1978 
L 1159 0 
L 581 0 
L 581 3500 
L 1159 3500 
L 1159 2956 
Q 1356 3278 1631 3431 
Q 1906 3584 2284 3584 
Q 2666 3584 2933 3390 
Q 3200 3197 3328 2828 
z
" transform="scale(0.015625)"/>
       <path id="DejaVuSans-2f" d="M 1625 4666 
L 2156 4666 
L 531 -594 
L 0 -594 
L 1625 4666 
z
" transform="scale(0.015625)"/>
       <path id="DejaVuSans-73" d="M 2834 3397 
L 2834 2853 
Q 2591 2978 2328 3040 
Q 2066 3103 1784 3103 
Q 1356 3103 1142 2972 
Q 928 2841 928 2578 
Q 928 2378 1081 2264 
Q 1234 2150 1697 2047 
L 1894 2003 
Q 2506 1872 2764 1633 
Q 3022 1394 3022 966 
Q 3022 478 2636 193 
Q 2250 -91 1575 -91 
Q 1294 -91 989 -36 
Q 684 19 347 128 
L 347 722 
Q 666 556 975 473 
Q 1284 391 1588 391 
Q 1994 391 2212 530 
Q 2431 669 2431 922 
Q 2431 1156 2273 1281 
Q 2116 1406 1581 1522 
L 1381 1569 
Q 847 1681 609 1914 
Q 372 2147 372 2553 
Q 372 3047 722 3315 
Q 1072 3584 1716 3584 
Q 2034 3584 2315 3537 
Q 2597 3491 2834 3397 
z
" transform="scale(0.015625)"/>
       <path id="DejaVuSans-5d" d="M 1947 4863 
L 1947 -844 
L 622 -844 
L 622 -397 
L 1369 -397 
L 1369 4416 
L 622 4416 
L 622 4863 
L 1947 4863 
z
" transform="scale(0.015625)"/>
      </defs>
      <use xlink:href="#DejaVuSans-76"/>
      <use xlink:href="#DejaVuSans-20" transform="translate(59.179688 0)"/>
      <use xlink:href="#DejaVuSans-5b" transform="translate(90.966797 0)"/>
      <use xlink:href="#DejaVuSans-6d" transform="translate(129.980469 0)"/>
      <use xlink:href="#DejaVuSans-2f" transform="translate(227.392578 0)"/>
      <use xlink:href="#DejaVuSans-73" transform="translate(261.083984 0)"/>
      <use xlink:href="#DejaVuSans-5d" transform="translate(313.183594 0)"/>
     </g>
    </g>
   </g>
   <g id="line2d_10">
    <path d="M 107.718182 37.608617 
L 109.972727 37.602714 
L 113.918182 37.904308 
L 118.709091 38.19343 
L 122.090909 38.184319 
L 136.463636 37.855893 
L 143.227273 38.256655 
L 146.609091 38.351701 
L 152.245455 38.648287 
L 155.909091 38.455187 
L 163.518182 38.02619 
L 166.054545 38.209746 
L 169.436364 38.46225 
L 173.1 38.412842 
L 175.636364 38.504363 
L 180.427273 38.79146 
L 182.681818 38.650549 
L 186.627273 38.1158 
L 190.572727 37.668109 
L 193.672727 37.525524 
L 196.209091 37.614093 
L 198.745455 37.940033 
L 204.1 38.749446 
L 206.354545 38.779729 
L 210.863636 38.532156 
L 215.090909 38.139671 
L 219.036364 37.793208 
L 221.854545 37.78721 
L 224.954545 37.983365 
L 227.490909 38.370973 
L 230.027273 39.014175 
L 232.563636 39.877275 
L 234.254545 40.646002 
L 235.945455 41.662921 
L 237.918182 43.159157 
L 241.3 46.09107 
L 243.836364 48.537368 
L 245.809091 50.768493 
L 252.572727 58.838234 
L 254.827273 60.939817 
L 257.081818 62.753708 
L 259.618182 64.496433 
L 263.281818 66.677621 
L 268.072727 69.623052 
L 272.863636 72.475179 
L 276.527273 74.73074 
L 282.727273 78.689126 
L 284.418182 79.459024 
L 286.109091 79.96569 
L 287.8 80.212149 
L 290.054545 80.264988 
L 298.227273 80.234085 
L 303.018182 80.375464 
L 305.272727 80.662698 
L 307.527273 81.177422 
L 310.063636 82.005668 
L 318.518182 85.043074 
L 320.490909 85.393246 
L 322.181818 85.488138 
L 323.872727 85.361449 
L 325.845455 84.961496 
L 330.918182 83.740037 
L 333.172727 83.51775 
L 335.709091 83.522106 
L 337.963636 83.733981 
L 340.218182 84.14931 
L 342.472727 84.794609 
L 344.163636 85.534073 
L 345.572727 86.440841 
L 346.7 87.421812 
L 348.109091 88.993395 
L 349.8 91.277054 
L 352.336364 94.714695 
L 353.463636 95.863116 
L 354.309091 96.454203 
L 355.154545 96.77142 
L 356 96.791696 
L 356.845455 96.504263 
L 357.690909 95.90829 
L 358.536364 95.010763 
L 359.381818 93.825476 
L 360.509091 91.834877 
L 361.918182 88.796457 
L 364.172727 83.195129 
L 366.709091 76.993568 
L 368.4 73.406412 
L 370.372727 69.757188 
L 372.909091 65.533916 
L 374.881818 62.575702 
L 376.572727 60.440485 
L 377.981818 59.026542 
L 379.390909 57.940164 
L 380.8 57.124124 
L 382.490909 56.393992 
L 385.027273 55.566061 
L 388.972727 54.299978 
L 391.227273 53.305158 
L 393.481818 52.051831 
L 403.063636 46.359639 
L 405.881818 45.088069 
L 408.136364 44.324538 
L 410.390909 43.817212 
L 412.645455 43.486222 
L 412.645455 43.486222 
" clip-path="url(#pb28024e9a7)" style="fill: none; stroke: #1f77b4; stroke-linecap: square"/>
   </g>
   <g id="patch_3">
    <path d="M 108 99.783529 
L 108 34.56 
" style="fill: none; stroke: #000000; stroke-width: 0.8; stroke-linejoin: miter; stroke-linecap: square"/>
   </g>
   <g id="patch_4">
    <path d="M 108 99.783529 
L 412.363636 99.783529 
" style="fill: none; stroke: #000000; stroke-width: 0.8; stroke-linejoin: miter; stroke-linecap: square"/>
   </g>
  </g>
  <g id="axes_2">
   <g id="patch_5">
    <path d="M 473.236364 99.783529 
L 777.6 99.783529 
L 777.6 34.56 
L 473.236364 34.56 
z
" style="fill: #ffffff"/>
   </g>
   <g id="matplotlib.axis_3">
    <g id="xtick_8">
     <g id="line2d_11">
      <g>
       <use xlink:href="#m6676b96ef1" x="473.236364" y="99.783529" style="stroke: #000000; stroke-width: 0.8"/>
      </g>
     </g>
    </g>
    <g id="xtick_9">
     <g id="line2d_12">
      <g>
       <use xlink:href="#m6676b96ef1" x="523.963636" y="99.783529" style="stroke: #000000; stroke-width: 0.8"/>
      </g>
     </g>
    </g>
    <g id="xtick_10">
     <g id="line2d_13">
      <g>
       <use xlink:href="#m6676b96ef1" x="574.690909" y="99.783529" style="stroke: #000000; stroke-width: 0.8"/>
      </g>
     </g>
    </g>
    <g id="xtick_11">
     <g id="line2d_14">
      <g>
       <use xlink:href="#m6676b96ef1" x="625.418182" y="99.783529" style="stroke: #000000; stroke-width: 0.8"/>
      </g>
     </g>
    </g>
    <g id="xtick_12">
     <g id="line2d_15">
      <g>
       <use xlink:href="#m6676b96ef1" x="676.145455" y="99.783529" style="stroke: #000000; stroke-width: 0.8"/>
      </g>
     </g>
    </g>
    <g id="xtick_13">
     <g id="line2d_16">
      <g>
       <use xlink:href="#m6676b96ef1" x="726.872727" y="99.783529" style="stroke: #000000; stroke-width: 0.8"/>
      </g>
     </g>
    </g>
    <g id="xtick_14">
     <g id="line2d_17">
      <g>
       <use xlink:href="#m6676b96ef1" x="777.6" y="99.783529" style="stroke: #000000; stroke-width: 0.8"/>
      </g>
     </g>
    </g>
   </g>
   <g id="matplotlib.axis_4">
    <g id="ytick_3">
     <g id="line2d_18">
      <g>
       <use xlink:href="#m294f96ab02" x="473.236364" y="81.288073" style="stroke: #000000; stroke-width: 0.8"/>
      </g>
     </g>
     <g id="text_4">
      <!-- −2 -->
      <g transform="translate(451.494176 85.087292) scale(0.1 -0.1)">
       <use xlink:href="#DejaVuSans-2212"/>
       <use xlink:href="#DejaVuSans-32" transform="translate(83.789062 0)"/>
      </g>
     </g>
    </g>
    <g id="ytick_4">
     <g id="line2d_19">
      <g>
       <use xlink:href="#m294f96ab02" x="473.236364" y="39.137954" style="stroke: #000000; stroke-width: 0.8"/>
      </g>
     </g>
     <g id="text_5">
      <!-- 0 -->
      <g transform="translate(459.873864 42.937172) scale(0.1 -0.1)">
       <use xlink:href="#DejaVuSans-30"/>
      </g>
     </g>
    </g>
    <g id="text_6">
     <!-- w [m/s] -->
     <g transform="translate(435.873864 85.910827) rotate(-90) scale(0.1 -0.1)">
      <defs>
       <path id="DejaVuSans-77" d="M 269 3500 
L 844 3500 
L 1563 769 
L 2278 3500 
L 2956 3500 
L 3675 769 
L 4391 3500 
L 4966 3500 
L 4050 0 
L 3372 0 
L 2619 2869 
L 1863 0 
L 1184 0 
L 269 3500 
z
" transform="scale(0.015625)"/>
      </defs>
      <use xlink:href="#DejaVuSans-77"/>
      <use xlink:href="#DejaVuSans-20" transform="translate(81.787109 0)"/>
      <use xlink:href="#DejaVuSans-5b" transform="translate(113.574219 0)"/>
      <use xlink:href="#DejaVuSans-6d" transform="translate(152.587891 0)"/>
      <use xlink:href="#DejaVuSans-2f" transform="translate(250 0)"/>
      <use xlink:href="#DejaVuSans-73" transform="translate(283.691406 0)"/>
      <use xlink:href="#DejaVuSans-5d" transform="translate(335.791016 0)"/>
     </g>
    </g>
   </g>
   <g id="line2d_20">
    <path d="M 472.954545 38.956482 
L 476.336364 39.014293 
L 486.481818 39.358238 
L 500.572727 39.579995 
L 513.536364 39.596727 
L 518.045455 39.775408 
L 523.963636 39.833316 
L 529.6 40.062085 
L 539.745455 40.033225 
L 543.409091 40.023871 
L 545.945455 40.258674 
L 549.609091 40.617579 
L 552.145455 40.611405 
L 558.345455 40.511809 
L 564.263636 40.589277 
L 571.872727 41.128714 
L 576.381818 41.206228 
L 581.736364 41.353128 
L 585.4 41.203408 
L 590.754545 40.899564 
L 593.854545 41.117324 
L 596.109091 41.164108 
L 599.772727 41.115855 
L 600.9 41.33964 
L 602.309091 41.881265 
L 604 42.829344 
L 610.481818 47.003525 
L 615.836364 50.747894 
L 617.809091 51.688293 
L 622.036364 53.566354 
L 623.727273 54.608404 
L 625.7 56.078213 
L 628.518182 58.485412 
L 635.845455 64.887527 
L 638.1 66.465099 
L 640.072727 67.566695 
L 642.045455 68.41122 
L 644.3 69.112423 
L 647.4 69.797586 
L 649.936364 70.430234 
L 651.627273 71.099326 
L 653.318182 72.056219 
L 655.290909 73.482009 
L 661.209091 77.980359 
L 664.872727 80.71149 
L 671.354545 85.761386 
L 673.045455 86.726793 
L 674.736364 87.453079 
L 676.427273 87.95191 
L 678.4 88.305738 
L 681.781818 88.63424 
L 685.445455 89.062514 
L 687.7 89.55857 
L 689.672727 90.251709 
L 691.645455 91.201598 
L 697.845455 94.43607 
L 700.945455 95.642244 
L 703.481818 96.414322 
L 705.172727 96.731571 
L 706.863636 96.813753 
L 708.272727 96.659152 
L 709.4 96.35291 
L 710.527273 95.835834 
L 711.654545 95.041686 
L 712.781818 93.888817 
L 713.627273 92.737572 
L 714.754545 90.761595 
L 715.881818 88.238765 
L 717.009091 85.159568 
L 718.418182 80.585703 
L 720.109091 74.262014 
L 724.618182 56.714736 
L 726.027273 52.393472 
L 727.154545 49.715316 
L 728 48.212913 
L 728.845455 47.148091 
L 729.690909 46.497027 
L 730.536364 46.213842 
L 731.381818 46.23669 
L 732.227273 46.496097 
L 733.354545 47.093596 
L 735.045455 48.276766 
L 737.863636 50.544696 
L 743.218182 55.024909 
L 744.627273 55.817026 
L 746.036364 56.315162 
L 747.445455 56.535284 
L 748.854545 56.529729 
L 750.827273 56.26407 
L 757.590909 55.060953 
L 760.127273 55.005724 
L 768.3 55.056867 
L 771.118182 54.741466 
L 777.881818 53.732294 
L 777.881818 53.732294 
" clip-path="url(#p808015d2fb)" style="fill: none; stroke: #1f77b4; stroke-linecap: square"/>
   </g>
   <g id="patch_6">
    <path d="M 473.236364 99.783529 
L 473.236364 34.56 
" style="fill: none; stroke: #000000; stroke-width: 0.8; stroke-linejoin: miter; stroke-linecap: square"/>
   </g>
   <g id="patch_7">
    <path d="M 473.236364 99.783529 
L 777.6 99.783529 
" style="fill: none; stroke: #000000; stroke-width: 0.8; stroke-linejoin: miter; stroke-linecap: square"/>
   </g>
  </g>
  <g id="axes_3">
   <g id="patch_8">
    <path d="M 108 178.051765 
L 412.363636 178.051765 
L 412.363636 112.828235 
L 108 112.828235 
z
" style="fill: #ffffff"/>
   </g>
   <g id="matplotlib.axis_5">
    <g id="xtick_15">
     <g id="line2d_21">
      <g>
       <use xlink:href="#m6676b96ef1" x="108" y="178.051765" style="stroke: #000000; stroke-width: 0.8"/>
      </g>
     </g>
    </g>
    <g id="xtick_16">
     <g id="line2d_22">
      <g>
       <use xlink:href="#m6676b96ef1" x="158.727273" y="178.051765" style="stroke: #000000; stroke-width: 0.8"/>
      </g>
     </g>
    </g>
    <g id="xtick_17">
     <g id="line2d_23">
      <g>
       <use xlink:href="#m6676b96ef1" x="209.454545" y="178.051765" style="stroke: #000000; stroke-width: 0.8"/>
      </g>
     </g>
    </g>
    <g id="xtick_18">
     <g id="line2d_24">
      <g>
       <use xlink:href="#m6676b96ef1" x="260.181818" y="178.051765" style="stroke: #000000; stroke-width: 0.8"/>
      </g>
     </g>
    </g>
    <g id="xtick_19">
     <g id="line2d_25">
      <g>
       <use xlink:href="#m6676b96ef1" x="310.909091" y="178.051765" style="stroke: #000000; stroke-width: 0.8"/>
      </g>
     </g>
    </g>
    <g id="xtick_20">
     <g id="line2d_26">
      <g>
       <use xlink:href="#m6676b96ef1" x="361.636364" y="178.051765" style="stroke: #000000; stroke-width: 0.8"/>
      </g>
     </g>
    </g>
    <g id="xtick_21">
     <g id="line2d_27">
      <g>
       <use xlink:href="#m6676b96ef1" x="412.363636" y="178.051765" style="stroke: #000000; stroke-width: 0.8"/>
      </g>
     </g>
    </g>
   </g>
   <g id="matplotlib.axis_6">
    <g id="ytick_5">
     <g id="line2d_28">
      <g>
       <use xlink:href="#m294f96ab02" x="108" y="170.969272" style="stroke: #000000; stroke-width: 0.8"/>
      </g>
     </g>
     <g id="text_7">
      <!-- −0.01 -->
      <g transform="translate(70.354687 174.768491) scale(0.1 -0.1)">
       <defs>
        <path id="DejaVuSans-2e" d="M 684 794 
L 1344 794 
L 1344 0 
L 684 0 
L 684 794 
z
" transform="scale(0.015625)"/>
        <path id="DejaVuSans-31" d="M 794 531 
L 1825 531 
L 1825 4091 
L 703 3866 
L 703 4441 
L 1819 4666 
L 2450 4666 
L 2450 531 
L 3481 531 
L 3481 0 
L 794 0 
L 794 531 
z
" transform="scale(0.015625)"/>
       </defs>
       <use xlink:href="#DejaVuSans-2212"/>
       <use xlink:href="#DejaVuSans-30" transform="translate(83.789062 0)"/>
       <use xlink:href="#DejaVuSans-2e" transform="translate(147.412109 0)"/>
       <use xlink:href="#DejaVuSans-30" transform="translate(179.199219 0)"/>
       <use xlink:href="#DejaVuSans-31" transform="translate(242.822266 0)"/>
      </g>
     </g>
    </g>
    <g id="ytick_6">
     <g id="line2d_29">
      <g>
       <use xlink:href="#m294f96ab02" x="108" y="136.259199" style="stroke: #000000; stroke-width: 0.8"/>
      </g>
     </g>
     <g id="text_8">
      <!-- 0.00 -->
      <g transform="translate(78.734375 140.058418) scale(0.1 -0.1)">
       <use xlink:href="#DejaVuSans-30"/>
       <use xlink:href="#DejaVuSans-2e" transform="translate(63.623047 0)"/>
       <use xlink:href="#DejaVuSans-30" transform="translate(95.410156 0)"/>
       <use xlink:href="#DejaVuSans-30" transform="translate(159.033203 0)"/>
      </g>
     </g>
    </g>
    <g id="text_9">
     <!-- $l_d$ [m] -->
     <g transform="translate(64.275 159.59) rotate(-90) scale(0.1 -0.1)">
      <defs>
       <path id="DejaVuSans-Oblique-6c" d="M 1172 4863 
L 1747 4863 
L 800 0 
L 225 0 
L 1172 4863 
z
" transform="scale(0.015625)"/>
       <path id="DejaVuSans-Oblique-64" d="M 2675 525 
Q 2444 222 2128 65 
Q 1813 -91 1428 -91 
Q 903 -91 598 267 
Q 294 625 294 1247 
Q 294 1766 478 2236 
Q 663 2706 1013 3078 
Q 1244 3325 1534 3454 
Q 1825 3584 2144 3584 
Q 2481 3584 2739 3421 
Q 2997 3259 3138 2956 
L 3513 4863 
L 4091 4863 
L 3144 0 
L 2566 0 
L 2675 525 
z
M 891 1350 
Q 891 897 1095 644 
Q 1300 391 1663 391 
Q 1931 391 2161 520 
Q 2391 650 2566 903 
Q 2750 1166 2856 1509 
Q 2963 1853 2963 2188 
Q 2963 2622 2758 2865 
Q 2553 3109 2194 3109 
Q 1922 3109 1687 2981 
Q 1453 2853 1288 2613 
Q 1106 2353 998 2009 
Q 891 1666 891 1350 
z
" transform="scale(0.015625)"/>
      </defs>
      <use xlink:href="#DejaVuSans-Oblique-6c" transform="translate(0 0.015625)"/>
      <use xlink:href="#DejaVuSans-Oblique-64" transform="translate(27.783203 -16.390625) scale(0.7)"/>
      <use xlink:href="#DejaVuSans-20" transform="translate(74.951172 0.015625)"/>
      <use xlink:href="#DejaVuSans-5b" transform="translate(106.738281 0.015625)"/>
      <use xlink:href="#DejaVuSans-6d" transform="translate(145.751953 0.015625)"/>
      <use xlink:href="#DejaVuSans-5d" transform="translate(243.164062 0.015625)"/>
     </g>
    </g>
   </g>
   <g id="line2d_30">
    <path d="M 107.718182 135.250241 
L 109.409091 135.624983 
L 109.972727 135.537149 
L 110.536364 135.173604 
L 111.1 134.47641 
L 115.045455 128.527716 
L 116.172727 127.516092 
L 118.427273 125.795357 
L 119.554545 125.120972 
L 120.4 124.684532 
L 120.963636 124.68773 
L 121.527273 124.954927 
L 123.218182 126.374257 
L 124.063636 127.181692 
L 125.190909 128.332649 
L 125.754545 128.461322 
L 126.6 128.160812 
L 128.009091 127.678298 
L 130.263636 127.219514 
L 131.109091 127.207985 
L 132.518182 126.860911 
L 133.081818 127.086442 
L 133.927273 127.797259 
L 134.772727 128.465517 
L 137.027273 129.905636 
L 137.590909 129.824435 
L 138.718182 129.342997 
L 139.281818 129.316697 
L 141.536364 129.750082 
L 142.381818 130.001916 
L 142.945455 129.900343 
L 143.509091 129.380557 
L 144.918182 127.771692 
L 145.763636 127.260236 
L 147.736364 126.449827 
L 148.581818 126.451819 
L 149.145455 126.182475 
L 149.990909 125.217273 
L 150.836364 124.325805 
L 152.809091 122.687047 
L 153.372727 122.435981 
L 153.936364 122.504254 
L 154.781818 122.749085 
L 156.754545 122.795056 
L 158.445455 123.613774 
L 159.009091 124.028352 
L 159.572727 124.750852 
L 162.390909 129.771034 
L 164.645455 134.488895 
L 165.772727 136.739841 
L 166.618182 138.271825 
L 167.181818 138.900362 
L 168.872727 140.242016 
L 169.718182 140.752108 
L 172.536364 141.565436 
L 173.1 141.308789 
L 174.509091 140.174196 
L 175.354545 139.287525 
L 176.481818 137.600354 
L 177.327273 136.485393 
L 178.172727 135.469104 
L 179.018182 133.918018 
L 179.863636 132.334445 
L 180.990909 130.742261 
L 182.118182 129.455953 
L 182.681818 129.057975 
L 183.245455 128.996462 
L 185.218182 129.441238 
L 185.781818 129.827441 
L 186.627273 130.788441 
L 187.754545 132.098281 
L 190.572727 134.717289 
L 191.418182 135.131713 
L 192.827273 136.288152 
L 193.954545 137.133232 
L 194.8 137.724833 
L 198.181818 140.827257 
L 199.027273 141.627075 
L 199.590909 141.88526 
L 200.436364 141.876516 
L 201.281818 141.617613 
L 201.845455 141.140518 
L 202.690909 139.895492 
L 203.536364 138.639318 
L 204.945455 136.764972 
L 207.763636 132.099463 
L 209.454545 128.993294 
L 210.018182 128.430155 
L 211.427273 127.510249 
L 212.272727 127.174087 
L 214.245455 126.882926 
L 214.809091 126.805149 
L 215.372727 126.9841 
L 216.218182 127.616634 
L 217.345455 128.405696 
L 218.472727 129.174379 
L 219.318182 129.791111 
L 220.163636 130.085147 
L 220.727273 130.319048 
L 221.854545 131.231567 
L 223.263636 132.338938 
L 227.209091 134.673379 
L 231.154545 137.967128 
L 231.718182 139.088498 
L 233.127273 142.586248 
L 233.690909 143.337226 
L 233.972727 143.490422 
L 234.254545 143.47863 
L 234.536364 143.298934 
L 235.1 142.455016 
L 235.663636 141.063058 
L 236.790909 137.925749 
L 237.354545 137.107779 
L 237.636364 137.000182 
L 237.918182 137.1012 
L 238.481818 137.865931 
L 239.890909 140.505055 
L 240.454545 140.861228 
L 241.018182 140.761485 
L 242.145455 140.190593 
L 242.709091 140.278829 
L 243.272727 140.783162 
L 243.836364 141.864251 
L 245.245455 145.517294 
L 245.527273 145.848317 
L 245.809091 145.93722 
L 246.090909 145.785663 
L 246.654545 144.876425 
L 247.5 142.604235 
L 249.472727 136.659573 
L 250.036364 135.803348 
L 251.727273 133.782246 
L 253.418182 131.203317 
L 254.545455 129.084289 
L 255.109091 128.36953 
L 255.672727 127.982704 
L 257.081818 127.361308 
L 258.490909 126.602088 
L 259.336364 126.207269 
L 259.9 126.237057 
L 260.463636 126.688698 
L 261.027273 127.689769 
L 261.872727 130.240597 
L 263 133.755145 
L 264.127273 136.31668 
L 265.536364 139.429989 
L 267.509091 143.946218 
L 268.072727 144.884816 
L 268.636364 145.305267 
L 268.918182 145.281025 
L 269.481818 144.838873 
L 270.327273 144.124623 
L 270.890909 143.938165 
L 271.454545 143.993127 
L 272.581818 144.471879 
L 273.709091 144.992251 
L 274.272727 144.942824 
L 274.836364 144.401633 
L 276.527273 141.890541 
L 277.090909 141.564226 
L 278.5 141.143627 
L 279.627273 140.518394 
L 280.472727 139.710051 
L 281.318182 138.924386 
L 281.881818 138.655969 
L 282.163636 138.637148 
L 282.445455 138.736667 
L 283.009091 139.308347 
L 285.263636 142.739066 
L 286.390909 144.65712 
L 289.772727 151.277314 
L 290.336364 151.946228 
L 291.745455 153.13953 
L 293.436364 155.173707 
L 293.718182 155.283785 
L 294 155.248994 
L 294.281818 155.059764 
L 294.845455 154.265721 
L 295.972727 152.348605 
L 296.536364 151.902724 
L 297.1 151.711649 
L 297.663636 151.845484 
L 298.227273 152.376227 
L 299.636364 154.093929 
L 299.918182 154.1607 
L 300.2 154.032175 
L 300.763636 153.311033 
L 301.890909 151.366459 
L 302.454545 150.773767 
L 303.3 150.367711 
L 303.863636 150.356928 
L 304.427273 150.68842 
L 305.836364 152.020895 
L 306.4 152.19474 
L 307.527273 152.307456 
L 308.090909 152.798468 
L 309.781818 154.935301 
L 310.345455 155.32388 
L 310.909091 155.515064 
L 311.472727 155.489586 
L 312.318182 155.139396 
L 312.881818 154.901649 
L 313.163636 154.905575 
L 313.445455 155.072281 
L 314.009091 155.882861 
L 315.418182 158.38694 
L 315.981818 158.866185 
L 316.545455 159.008173 
L 317.390909 158.864379 
L 317.954545 158.614518 
L 319.081818 157.94048 
L 319.363636 157.98428 
L 319.927273 158.474001 
L 321.336364 160.375091 
L 321.9 160.696951 
L 323.027273 161.017936 
L 323.872727 161.053325 
L 324.436364 160.815294 
L 325.845455 159.767022 
L 326.972727 159.476062 
L 327.536364 159.395642 
L 328.1 159.564083 
L 328.663636 160.140157 
L 329.227273 161.135684 
L 330.072727 162.877887 
L 330.636364 163.570949 
L 331.2 163.729995 
L 332.890909 163.393228 
L 334.018182 163.629488 
L 334.863636 164.032131 
L 335.709091 164.563112 
L 335.990909 164.625695 
L 336.272727 164.552706 
L 336.836364 163.933895 
L 337.963636 162.201604 
L 338.245455 162.059803 
L 338.809091 162.179837 
L 339.654545 162.866145 
L 341.063636 164.041811 
L 341.627273 164.211576 
L 341.909091 164.112913 
L 342.472727 163.514795 
L 343.036364 162.771941 
L 343.318182 162.54384 
L 343.6 162.519702 
L 343.881818 162.722727 
L 344.445455 163.699655 
L 346.981818 169.828842 
L 347.263636 170.153652 
L 347.545455 170.283139 
L 347.827273 170.227625 
L 349.236364 169.40742 
L 349.8 169.679694 
L 351.209091 170.61868 
L 352.054545 170.949979 
L 352.618182 170.852872 
L 353.181818 170.437821 
L 353.745455 169.967515 
L 354.309091 169.821516 
L 354.872727 170.036427 
L 355.436364 170.618453 
L 356.281818 172.076762 
L 357.127273 173.558035 
L 357.690909 174.20093 
L 358.536364 174.650359 
L 359.663636 175.064161 
L 360.227273 175.044408 
L 360.790909 174.733525 
L 361.354545 174.098329 
L 361.918182 173.024936 
L 362.481818 171.43533 
L 363.327273 168.160594 
L 365.018182 160.920139 
L 365.581818 159.190746 
L 366.145455 158.067906 
L 366.990909 157.028533 
L 368.681818 155.238608 
L 369.245455 154.212045 
L 369.809091 152.751163 
L 370.654545 149.885511 
L 372.627273 142.621237 
L 373.190909 141.386572 
L 373.472727 141.048973 
L 373.754545 140.92508 
L 374.036364 140.993387 
L 374.6 141.522155 
L 375.445455 142.899335 
L 376.854545 145.484715 
L 377.418182 146.175938 
L 377.7 146.368186 
L 377.981818 146.415349 
L 378.263636 146.27528 
L 378.545455 145.912498 
L 379.109091 144.438464 
L 379.672727 141.994945 
L 381.363636 133.459116 
L 382.209091 130.402898 
L 383.054545 128.207123 
L 383.618182 127.334725 
L 384.181818 126.949621 
L 385.590909 126.675033 
L 386.154545 126.74516 
L 386.718182 127.079566 
L 387.563636 127.696688 
L 388.127273 127.872165 
L 389.536364 128.025507 
L 390.1 128.188917 
L 390.663636 128.074095 
L 391.509091 127.40533 
L 392.072727 127.011171 
L 393.481818 126.516001 
L 394.890909 126.06791 
L 395.454545 126.121799 
L 396.018182 126.356383 
L 396.581818 126.772856 
L 397.427273 127.773243 
L 398.272727 129.198411 
L 398.836364 130.547449 
L 400.527273 135.310553 
L 401.372727 136.704211 
L 403.909091 139.873913 
L 404.472727 140.183166 
L 405.036364 140.263811 
L 405.6 140.091531 
L 406.163636 139.606753 
L 407.572727 137.842245 
L 408.136364 137.618738 
L 408.418182 137.722705 
L 408.981818 138.375435 
L 410.109091 140.099557 
L 410.672727 140.622492 
L 411.236364 140.731938 
L 411.8 140.40952 
L 412.363636 139.716617 
L 412.645455 139.263474 
L 412.645455 139.263474 
" clip-path="url(#pea4b287512)" style="fill: none; stroke: #1f77b4; stroke-linecap: square"/>
   </g>
   <g id="patch_9">
    <path d="M 108 178.051765 
L 108 112.828235 
" style="fill: none; stroke: #000000; stroke-width: 0.8; stroke-linejoin: miter; stroke-linecap: square"/>
   </g>
   <g id="patch_10">
    <path d="M 108 178.051765 
L 412.363636 178.051765 
" style="fill: none; stroke: #000000; stroke-width: 0.8; stroke-linejoin: miter; stroke-linecap: square"/>
   </g>
  </g>
  <g id="axes_4">
   <g id="patch_11">
    <path d="M 473.236364 178.051765 
L 777.6 178.051765 
L 777.6 112.828235 
L 473.236364 112.828235 
z
" style="fill: #ffffff"/>
   </g>
   <g id="matplotlib.axis_7">
    <g id="xtick_22">
     <g id="line2d_31">
      <g>
       <use xlink:href="#m6676b96ef1" x="473.236364" y="178.051765" style="stroke: #000000; stroke-width: 0.8"/>
      </g>
     </g>
    </g>
    <g id="xtick_23">
     <g id="line2d_32">
      <g>
       <use xlink:href="#m6676b96ef1" x="523.963636" y="178.051765" style="stroke: #000000; stroke-width: 0.8"/>
      </g>
     </g>
    </g>
    <g id="xtick_24">
     <g id="line2d_33">
      <g>
       <use xlink:href="#m6676b96ef1" x="574.690909" y="178.051765" style="stroke: #000000; stroke-width: 0.8"/>
      </g>
     </g>
    </g>
    <g id="xtick_25">
     <g id="line2d_34">
      <g>
       <use xlink:href="#m6676b96ef1" x="625.418182" y="178.051765" style="stroke: #000000; stroke-width: 0.8"/>
      </g>
     </g>
    </g>
    <g id="xtick_26">
     <g id="line2d_35">
      <g>
       <use xlink:href="#m6676b96ef1" x="676.145455" y="178.051765" style="stroke: #000000; stroke-width: 0.8"/>
      </g>
     </g>
    </g>
    <g id="xtick_27">
     <g id="line2d_36">
      <g>
       <use xlink:href="#m6676b96ef1" x="726.872727" y="178.051765" style="stroke: #000000; stroke-width: 0.8"/>
      </g>
     </g>
    </g>
    <g id="xtick_28">
     <g id="line2d_37">
      <g>
       <use xlink:href="#m6676b96ef1" x="777.6" y="178.051765" style="stroke: #000000; stroke-width: 0.8"/>
      </g>
     </g>
    </g>
   </g>
   <g id="matplotlib.axis_8">
    <g id="ytick_7">
     <g id="line2d_38">
      <g>
       <use xlink:href="#m294f96ab02" x="473.236364" y="175.661933" style="stroke: #000000; stroke-width: 0.8"/>
      </g>
     </g>
     <g id="text_10">
      <!-- −0.1 -->
      <g transform="translate(441.953551 179.461152) scale(0.1 -0.1)">
       <use xlink:href="#DejaVuSans-2212"/>
       <use xlink:href="#DejaVuSans-30" transform="translate(83.789062 0)"/>
       <use xlink:href="#DejaVuSans-2e" transform="translate(147.412109 0)"/>
       <use xlink:href="#DejaVuSans-31" transform="translate(179.199219 0)"/>
      </g>
     </g>
    </g>
    <g id="ytick_8">
     <g id="line2d_39">
      <g>
       <use xlink:href="#m294f96ab02" x="473.236364" y="152.557092" style="stroke: #000000; stroke-width: 0.8"/>
      </g>
     </g>
     <g id="text_11">
      <!-- 0.0 -->
      <g transform="translate(450.333239 156.356311) scale(0.1 -0.1)">
       <use xlink:href="#DejaVuSans-30"/>
       <use xlink:href="#DejaVuSans-2e" transform="translate(63.623047 0)"/>
       <use xlink:href="#DejaVuSans-30" transform="translate(95.410156 0)"/>
      </g>
     </g>
    </g>
    <g id="ytick_9">
     <g id="line2d_40">
      <g>
       <use xlink:href="#m294f96ab02" x="473.236364" y="129.452251" style="stroke: #000000; stroke-width: 0.8"/>
      </g>
     </g>
     <g id="text_12">
      <!-- 0.1 -->
      <g transform="translate(450.333239 133.25147) scale(0.1 -0.1)">
       <use xlink:href="#DejaVuSans-30"/>
       <use xlink:href="#DejaVuSans-2e" transform="translate(63.623047 0)"/>
       <use xlink:href="#DejaVuSans-31" transform="translate(95.410156 0)"/>
      </g>
     </g>
    </g>
    <g id="text_13">
     <!-- $l_{dd}$ [m/s] -->
     <g transform="translate(435.873864 166.09) rotate(-90) scale(0.1 -0.1)">
      <use xlink:href="#DejaVuSans-Oblique-6c" transform="translate(0 0.015625)"/>
      <use xlink:href="#DejaVuSans-Oblique-64" transform="translate(27.783203 -16.390625) scale(0.7)"/>
      <use xlink:href="#DejaVuSans-Oblique-64" transform="translate(72.216797 -16.390625) scale(0.7)"/>
      <use xlink:href="#DejaVuSans-20" transform="translate(119.384766 0.015625)"/>
      <use xlink:href="#DejaVuSans-5b" transform="translate(151.171875 0.015625)"/>
      <use xlink:href="#DejaVuSans-6d" transform="translate(190.185547 0.015625)"/>
      <use xlink:href="#DejaVuSans-2f" transform="translate(287.597656 0.015625)"/>
      <use xlink:href="#DejaVuSans-73" transform="translate(321.289062 0.015625)"/>
      <use xlink:href="#DejaVuSans-5d" transform="translate(373.388672 0.015625)"/>
     </g>
    </g>
   </g>
   <g id="line2d_41">
    <path d="M 472.954545 154.306962 
L 473.8 154.436558 
L 474.081818 154.02059 
L 474.645455 152.532642 
L 475.209091 150.091017 
L 476.336364 142.821957 
L 476.618182 141.961838 
L 476.9 141.595311 
L 477.181818 141.651875 
L 478.027273 142.431788 
L 478.309091 142.411962 
L 479.154545 141.461915 
L 479.436364 142.15481 
L 480.281818 145.518851 
L 480.845455 146.517871 
L 481.409091 147.148321 
L 481.690909 147.056616 
L 482.254545 146.40059 
L 482.536364 146.637021 
L 483.381818 148.788337 
L 483.663636 149.071865 
L 483.945455 148.988 
L 484.509091 148.045871 
L 484.790909 147.9483 
L 485.072727 148.496967 
L 485.636364 150.987626 
L 486.763636 157.076385 
L 487.045455 158.016912 
L 487.327273 158.447113 
L 487.609091 158.460874 
L 488.172727 158.199538 
L 488.454545 158.248617 
L 488.736364 158.621031 
L 489.3 160.076454 
L 489.581818 160.316198 
L 489.863636 159.828761 
L 490.145455 158.588455 
L 490.709091 154.098816 
L 491.272727 150.372006 
L 491.554545 149.818292 
L 491.836364 149.750864 
L 492.4 150.057747 
L 493.245455 150.893347 
L 493.527273 150.815539 
L 494.090909 150.066096 
L 494.372727 150.258974 
L 495.5 153.134881 
L 495.781818 152.929758 
L 496.627273 150.127825 
L 496.909091 150.084952 
L 497.190909 150.759357 
L 497.754545 153.559977 
L 498.318182 156.773482 
L 498.6 157.943426 
L 498.881818 158.62535 
L 499.163636 158.692445 
L 499.727273 157.559131 
L 500.009091 157.041923 
L 500.290909 156.762198 
L 500.572727 156.837267 
L 501.136364 157.829121 
L 501.418182 157.848697 
L 501.7 157.049584 
L 502.263636 153.669062 
L 502.827273 149.86636 
L 503.109091 149.107706 
L 503.390909 149.381552 
L 504.236364 152.24198 
L 504.8 153.987655 
L 505.081818 154.526489 
L 505.363636 154.545592 
L 506.209091 153.068874 
L 507.054545 154.796843 
L 507.336364 154.46127 
L 507.618182 153.327748 
L 508.181818 148.73582 
L 508.745455 144.801597 
L 509.027273 144.157471 
L 509.309091 144.21287 
L 509.590909 144.802191 
L 511 149.376811 
L 511.281818 149.256319 
L 511.563636 148.986602 
L 511.845455 148.985834 
L 512.127273 149.365667 
L 512.690909 151.17288 
L 512.972727 152.292486 
L 513.254545 152.859764 
L 513.536364 152.452055 
L 513.818182 151.181988 
L 514.945455 144.238578 
L 515.227273 144.345663 
L 516.072727 146.36233 
L 516.636364 146.908527 
L 517.2 146.996928 
L 517.481818 146.966351 
L 517.763636 147.121947 
L 518.045455 147.914332 
L 519.172727 154.503317 
L 519.454545 154.850439 
L 519.736364 154.323659 
L 520.3 151.880015 
L 520.581818 151.419014 
L 520.863636 151.755293 
L 522.272727 155.705354 
L 522.554545 155.993855 
L 522.836364 156.010779 
L 523.118182 155.819729 
L 523.4 155.764809 
L 523.681818 156.291293 
L 524.245455 159.249695 
L 525.090909 164.67059 
L 525.372727 165.192631 
L 525.654545 164.910297 
L 526.218182 163.751395 
L 526.5 163.465504 
L 526.781818 163.727678 
L 527.345455 165.87602 
L 527.909091 167.571213 
L 528.190909 167.794193 
L 528.472727 167.64822 
L 528.754545 167.191533 
L 529.881818 164.767991 
L 530.163636 165.284816 
L 530.727273 166.799621 
L 531.009091 166.596669 
L 531.290909 165.634481 
L 531.854545 162.029858 
L 532.418182 158.798111 
L 532.7 158.279503 
L 533.263636 158.002752 
L 534.390909 156.975964 
L 534.672727 156.372224 
L 535.518182 153.594719 
L 535.8 153.903942 
L 536.363636 155.51179 
L 536.645455 155.974173 
L 536.927273 155.836116 
L 537.209091 154.852401 
L 538.336364 148.182088 
L 538.618182 147.356361 
L 538.9 147.035373 
L 539.463636 146.945869 
L 539.745455 146.583696 
L 540.309091 145.049266 
L 541.154545 142.260155 
L 541.436364 141.903609 
L 541.718182 142.10382 
L 542 142.987362 
L 542.563636 145.174781 
L 542.845455 145.024062 
L 543.127273 143.973045 
L 543.972727 139.440605 
L 544.254545 138.907694 
L 544.536364 139.370061 
L 545.381818 142.369952 
L 545.945455 143.667093 
L 546.509091 144.496145 
L 547.072727 145.205832 
L 547.354545 146.127164 
L 547.918182 149.875861 
L 548.481818 153.275026 
L 548.763636 154.131187 
L 549.045455 154.310221 
L 549.609091 153.515919 
L 549.890909 153.685374 
L 550.172727 154.519714 
L 551.581818 160.687094 
L 551.863636 161.091222 
L 552.145455 161.013535 
L 552.990909 159.307212 
L 553.272727 159.181319 
L 553.554545 159.351985 
L 554.4 160.267738 
L 554.681818 159.735336 
L 555.809091 155.650465 
L 556.090909 155.53572 
L 556.372727 156.09596 
L 556.936364 157.785329 
L 557.218182 158.182126 
L 557.781818 158.320758 
L 558.063636 158.284935 
L 558.345455 158.109315 
L 559.190909 156.784102 
L 559.472727 156.963411 
L 560.318182 158.695442 
L 560.6 158.902444 
L 560.881818 158.759024 
L 561.445455 157.817497 
L 561.727273 157.768954 
L 562.854545 159.587651 
L 563.418182 159.555329 
L 563.7 159.338125 
L 563.981818 158.664485 
L 564.545455 155.650588 
L 565.109091 152.874894 
L 565.672727 151.448969 
L 565.954545 150.922437 
L 566.236364 150.140543 
L 566.518182 148.768111 
L 567.363636 143.144967 
L 567.645455 141.983707 
L 567.927273 141.564444 
L 568.209091 142.009777 
L 568.772727 143.851843 
L 569.054545 144.1663 
L 569.336364 143.995323 
L 569.9 142.862331 
L 570.745455 140.588753 
L 571.027273 140.277293 
L 571.309091 140.692244 
L 571.872727 142.541183 
L 572.154545 142.62305 
L 572.436364 141.997506 
L 573.281818 138.931075 
L 573.563636 138.669773 
L 573.845455 139.278541 
L 574.409091 142.244349 
L 574.972727 145.809697 
L 575.254545 147.051779 
L 575.536364 147.784182 
L 575.818182 148.159232 
L 576.663636 148.740308 
L 577.227273 150.319244 
L 577.790909 152.292471 
L 578.072727 152.873252 
L 578.354545 152.664313 
L 578.918182 150.476776 
L 579.2 150.032947 
L 579.481818 150.507131 
L 580.045455 153.08283 
L 580.890909 157.306221 
L 581.172727 157.989745 
L 581.454545 158.163593 
L 581.736364 157.830513 
L 582.3 156.738002 
L 582.581818 156.529975 
L 582.863636 156.637385 
L 583.145455 157.057986 
L 583.709091 158.110224 
L 583.990909 157.919607 
L 584.554545 156.107568 
L 585.118182 154.556685 
L 585.4 154.557127 
L 585.681818 155.359635 
L 586.245455 157.66764 
L 586.527273 158.213848 
L 586.809091 158.380115 
L 587.372727 158.411857 
L 587.654545 158.263433 
L 587.936364 157.840798 
L 588.5 156.590129 
L 588.781818 156.318353 
L 589.909091 156.414665 
L 590.754545 155.677927 
L 591.036364 155.819737 
L 592.163636 157.872155 
L 592.727273 158.201811 
L 593.290909 158.620744 
L 593.572727 158.629836 
L 593.854545 158.464852 
L 594.418182 157.643426 
L 594.981818 156.804826 
L 595.263636 156.757715 
L 595.545455 157.179778 
L 595.827273 158.381659 
L 596.390909 163.093873 
L 597.236364 170.667284 
L 597.518182 170.862444 
L 597.8 169.577194 
L 598.363636 164.659527 
L 599.209091 154.251363 
L 600.618182 135.879005 
L 600.9 133.489552 
L 601.181818 132.354057 
L 601.463636 132.964892 
L 601.745455 135.169701 
L 602.309091 142.756392 
L 603.718182 164.87806 
L 604 166.597277 
L 604.281818 166.843854 
L 604.563636 165.613637 
L 605.127273 159.994758 
L 605.972727 151.36199 
L 606.254545 149.588834 
L 606.536364 148.615607 
L 606.818182 148.622812 
L 607.1 149.658303 
L 607.663636 153.614311 
L 608.227273 158.599874 
L 609.354545 171.112022 
L 609.636364 172.006021 
L 609.918182 171.074945 
L 610.2 168.003974 
L 611.045455 151.806388 
L 611.609091 141.662833 
L 612.172727 135.407065 
L 612.736364 131.709586 
L 613.018182 130.578177 
L 613.3 129.979621 
L 613.581818 129.981914 
L 613.863636 130.94687 
L 614.145455 133.150948 
L 614.990909 142.298031 
L 615.272727 144.299197 
L 615.554545 145.334287 
L 615.836364 145.355999 
L 616.963636 143.05295 
L 617.245455 143.036531 
L 617.527273 143.228811 
L 617.809091 143.092843 
L 618.090909 142.162358 
L 618.654545 139.380988 
L 618.936364 139.039076 
L 619.218182 139.562253 
L 619.781818 142.202485 
L 620.909091 149.514262 
L 621.190909 150.244076 
L 621.472727 150.051513 
L 622.036364 148.827098 
L 622.318182 148.448217 
L 622.6 148.379329 
L 622.881818 148.674422 
L 623.445455 149.462453 
L 624.009091 149.127595 
L 624.290909 149.518729 
L 624.572727 150.855571 
L 625.136364 155.335119 
L 625.7 160.976429 
L 626.827273 174.142708 
L 627.109091 175.087059 
L 627.390909 174.948741 
L 627.672727 173.910099 
L 628.8 167.670917 
L 629.081818 166.880349 
L 629.363636 166.586754 
L 629.645455 166.702824 
L 630.209091 167.736326 
L 630.490909 168.293683 
L 630.772727 168.572037 
L 631.054545 168.578892 
L 631.9 168.200683 
L 632.181818 167.819091 
L 632.463636 167.077051 
L 632.745455 165.816169 
L 633.309091 160.990607 
L 634.436364 147.259334 
L 634.718182 145.95994 
L 635 146.238624 
L 635.563636 148.818524 
L 636.690909 154.400523 
L 636.972727 155.194766 
L 637.254545 155.544854 
L 637.818182 155.796548 
L 638.1 156.012164 
L 638.381818 155.977457 
L 638.663636 155.336977 
L 638.945455 154.011824 
L 639.509091 149.209251 
L 640.072727 143.356777 
L 640.354545 141.668018 
L 640.636364 141.041598 
L 640.918182 141.41118 
L 641.2 142.659892 
L 642.327273 150.27082 
L 642.609091 151.039817 
L 642.890909 150.940815 
L 643.736364 149.609517 
L 644.3 148.876407 
L 644.581818 148.345116 
L 645.145455 146.546608 
L 645.427273 145.59612 
L 645.709091 145.250905 
L 645.990909 145.731231 
L 646.554545 148.012776 
L 647.118182 151.072014 
L 647.681818 156.545631 
L 648.245455 161.488707 
L 648.527273 162.75793 
L 648.809091 163.32708 
L 649.090909 163.323 
L 649.654545 162.646664 
L 649.936364 162.518078 
L 650.218182 162.60676 
L 650.5 162.889589 
L 651.063636 163.966732 
L 651.909091 166.214875 
L 652.190909 166.287851 
L 653.036364 165.358073 
L 653.318182 165.452474 
L 654.163636 166.620931 
L 654.445455 166.149026 
L 654.727273 164.732895 
L 655.854545 157.295544 
L 656.136364 157.257636 
L 657.263636 161.33799 
L 657.545455 161.622609 
L 657.827273 161.495148 
L 658.109091 160.789144 
L 658.390909 159.211114 
L 658.954545 153.459165 
L 659.8 143.043072 
L 660.081818 140.933788 
L 660.363636 140.01167 
L 660.645455 140.401823 
L 660.927273 142.132124 
L 661.772727 148.947057 
L 662.336364 151.900702 
L 663.463636 160.606978 
L 663.745455 161.620799 
L 664.027273 161.861934 
L 664.309091 161.267474 
L 664.590909 159.459375 
L 665.154545 151.81717 
L 665.718182 143.916558 
L 666 141.411897 
L 666.281818 140.210336 
L 666.563636 140.385314 
L 666.845455 141.604458 
L 667.972727 148.853814 
L 668.536364 150.863827 
L 669.1 154.459129 
L 669.663636 158.270805 
L 669.945455 159.487972 
L 670.227273 159.872104 
L 670.509091 159.281756 
L 671.072727 156.319246 
L 671.636364 153.277295 
L 671.918182 152.612399 
L 672.2 152.785527 
L 672.481818 153.852314 
L 673.045455 158.44028 
L 673.327273 160.74645 
L 673.609091 161.978917 
L 673.890909 162.186408 
L 674.172727 161.695101 
L 674.736364 159.600235 
L 676.990909 150.052379 
L 677.272727 149.390297 
L 677.554545 149.216765 
L 677.836364 149.708461 
L 678.118182 151.404654 
L 678.681818 158.643441 
L 679.245455 164.685503 
L 679.527273 165.829844 
L 679.809091 165.774531 
L 680.090909 164.66675 
L 680.654545 160.642508 
L 681.5 154.25835 
L 682.063636 151.770829 
L 683.190909 148.458902 
L 683.472727 147.58988 
L 683.754545 147.809694 
L 684.036364 149.448156 
L 685.445455 162.528757 
L 685.727273 162.777592 
L 686.009091 161.975401 
L 687.136364 155.284818 
L 687.418182 154.737718 
L 688.263636 153.890096 
L 688.545455 153.308357 
L 689.109091 151.221023 
L 689.954545 146.84916 
L 690.236364 146.690685 
L 690.518182 147.424937 
L 691.363636 150.523723 
L 691.645455 151.029076 
L 692.209091 151.112824 
L 692.490909 151.593519 
L 692.772727 152.776261 
L 693.336364 156.852655 
L 694.463636 166.360802 
L 694.745455 167.068747 
L 695.027273 166.147583 
L 695.590909 160.861177 
L 696.436364 152.066264 
L 696.718182 150.660116 
L 697 150.178957 
L 697.281818 150.495983 
L 698.127273 153.240128 
L 698.690909 153.947468 
L 699.254545 154.727823 
L 699.818182 156.168684 
L 700.1 156.914231 
L 700.381818 157.144891 
L 700.663636 156.589868 
L 700.945455 155.081217 
L 701.509091 148.810211 
L 702.072727 142.402625 
L 702.354545 140.943656 
L 702.636364 141.190258 
L 702.918182 143.414663 
L 703.763636 153.995306 
L 704.327273 157.677114 
L 704.609091 158.499356 
L 704.890909 158.826842 
L 705.172727 158.832171 
L 705.454545 158.611138 
L 705.736364 158.152289 
L 706.018182 157.422957 
L 706.3 156.355178 
L 706.581818 154.591176 
L 707.709091 143.720914 
L 707.990909 143.656407 
L 708.272727 145.574806 
L 708.836364 154.700475 
L 709.4 164.262388 
L 709.963636 169.667124 
L 710.245455 170.443628 
L 710.527273 170.482021 
L 710.809091 170.30713 
L 711.090909 169.983784 
L 711.372727 169.210236 
L 711.654545 167.735989 
L 711.936364 165.485684 
L 712.5 158.000363 
L 713.063636 149.719813 
L 713.345455 147.495591 
L 713.627273 146.905755 
L 713.909091 148.010038 
L 715.036364 157.197189 
L 715.318182 157.728955 
L 715.6 157.550702 
L 716.163636 156.263429 
L 716.727273 155.648065 
L 717.009091 154.888606 
L 717.572727 151.393583 
L 718.136364 147.584058 
L 718.418182 146.593174 
L 718.7 146.922001 
L 719.263636 150.807769 
L 720.954545 163.657204 
L 721.236364 164.869719 
L 721.518182 165.346587 
L 721.8 165.009568 
L 722.081818 163.888793 
L 723.490909 155.61622 
L 723.772727 155.415135 
L 724.054545 155.425446 
L 724.336364 155.201395 
L 724.618182 154.646812 
L 724.9 153.694002 
L 725.463636 150.640394 
L 726.309091 144.946338 
L 726.872727 139.695975 
L 728.281818 125.116273 
L 728.563636 123.102783 
L 728.845455 121.946013 
L 729.127273 121.879257 
L 729.409091 122.745167 
L 729.972727 126.226824 
L 730.536364 131.835954 
L 731.381818 141.898999 
L 731.945455 144.862236 
L 732.509091 146.051803 
L 732.790909 146.174082 
L 733.072727 145.957083 
L 733.354545 145.353179 
L 733.636364 144.215975 
L 734.2 140.257075 
L 735.327273 130.4096 
L 735.890909 127.634483 
L 736.454545 125.829261 
L 736.736364 125.713371 
L 737.018182 126.597046 
L 737.3 128.402452 
L 737.863636 134.065715 
L 738.427273 142.115822 
L 739.272727 155.932365 
L 739.836364 161.074505 
L 740.4 164.319425 
L 740.681818 165.324979 
L 740.963636 165.720369 
L 741.245455 165.552383 
L 741.527273 164.941428 
L 742.090909 162.64668 
L 742.654545 158.482762 
L 743.218182 151.443915 
L 744.063636 134.895597 
L 744.627273 123.279481 
L 745.190909 116.604259 
L 745.472727 115.792941 
L 745.754545 116.814804 
L 748.009091 136.256698 
L 749.418182 150.062225 
L 749.7 151.063809 
L 749.981818 151.205489 
L 750.263636 151.175572 
L 750.545455 151.475068 
L 750.827273 152.200932 
L 751.390909 154.993365 
L 751.954545 157.564967 
L 752.236364 157.788772 
L 752.518182 157.295078 
L 753.081818 154.659605 
L 753.363636 153.316297 
L 753.645455 152.682961 
L 753.927273 152.75334 
L 754.490909 154.07574 
L 754.772727 154.703663 
L 755.054545 154.515029 
L 755.336364 153.193209 
L 756.181818 147.57811 
L 756.463636 146.698775 
L 756.745455 146.814389 
L 757.590909 149.949745 
L 757.872727 150.331713 
L 758.154545 150.398884 
L 759.281818 150.043377 
L 759.563636 150.313866 
L 759.845455 150.958572 
L 761.536364 157.547161 
L 762.381818 161.078165 
L 762.945455 163.135182 
L 763.509091 166.577975 
L 764.354545 172.704789 
L 764.636364 173.394276 
L 764.918182 172.825632 
L 765.481818 169.211138 
L 766.327273 162.767394 
L 766.609091 161.64907 
L 766.890909 161.266154 
L 767.172727 161.628927 
L 767.454545 162.332584 
L 767.736364 162.627323 
L 768.018182 162.099096 
L 769.427273 156.262487 
L 770.554545 150.492883 
L 771.681818 143.493956 
L 771.963636 143.164272 
L 772.245455 143.75671 
L 772.527273 145.133017 
L 773.090909 149.87909 
L 774.218182 162.556462 
L 774.5 163.424605 
L 774.781818 163.262414 
L 775.063636 162.347559 
L 775.627273 158.822758 
L 777.6 142.497427 
L 777.881818 141.046603 
L 777.881818 141.046603 
" clip-path="url(#p2a33612f25)" style="fill: none; stroke: #1f77b4; stroke-linecap: square"/>
   </g>
   <g id="patch_12">
    <path d="M 473.236364 178.051765 
L 473.236364 112.828235 
" style="fill: none; stroke: #000000; stroke-width: 0.8; stroke-linejoin: miter; stroke-linecap: square"/>
   </g>
   <g id="patch_13">
    <path d="M 473.236364 178.051765 
L 777.6 178.051765 
" style="fill: none; stroke: #000000; stroke-width: 0.8; stroke-linejoin: miter; stroke-linecap: square"/>
   </g>
  </g>
  <g id="axes_5">
   <g id="patch_14">
    <path d="M 108 256.32 
L 412.363636 256.32 
L 412.363636 191.096471 
L 108 191.096471 
z
" style="fill: #ffffff"/>
   </g>
   <g id="matplotlib.axis_9">
    <g id="xtick_29">
     <g id="line2d_42">
      <g>
       <use xlink:href="#m6676b96ef1" x="108" y="256.32" style="stroke: #000000; stroke-width: 0.8"/>
      </g>
     </g>
     <g id="text_14">
      <!-- 0.5 -->
      <g transform="translate(100.048438 270.918437) scale(0.1 -0.1)">
       <defs>
        <path id="DejaVuSans-35" d="M 691 4666 
L 3169 4666 
L 3169 4134 
L 1269 4134 
L 1269 2991 
Q 1406 3038 1543 3061 
Q 1681 3084 1819 3084 
Q 2600 3084 3056 2656 
Q 3513 2228 3513 1497 
Q 3513 744 3044 326 
Q 2575 -91 1722 -91 
Q 1428 -91 1123 -41 
Q 819 9 494 109 
L 494 744 
Q 775 591 1075 516 
Q 1375 441 1709 441 
Q 2250 441 2565 725 
Q 2881 1009 2881 1497 
Q 2881 1984 2565 2268 
Q 2250 2553 1709 2553 
Q 1456 2553 1204 2497 
Q 953 2441 691 2322 
L 691 4666 
z
" transform="scale(0.015625)"/>
       </defs>
       <use xlink:href="#DejaVuSans-30"/>
       <use xlink:href="#DejaVuSans-2e" transform="translate(63.623047 0)"/>
       <use xlink:href="#DejaVuSans-35" transform="translate(95.410156 0)"/>
      </g>
     </g>
    </g>
    <g id="xtick_30">
     <g id="line2d_43">
      <g>
       <use xlink:href="#m6676b96ef1" x="158.727273" y="256.32" style="stroke: #000000; stroke-width: 0.8"/>
      </g>
     </g>
     <g id="text_15">
      <!-- 1.0 -->
      <g transform="translate(150.77571 270.918437) scale(0.1 -0.1)">
       <use xlink:href="#DejaVuSans-31"/>
       <use xlink:href="#DejaVuSans-2e" transform="translate(63.623047 0)"/>
       <use xlink:href="#DejaVuSans-30" transform="translate(95.410156 0)"/>
      </g>
     </g>
    </g>
    <g id="xtick_31">
     <g id="line2d_44">
      <g>
       <use xlink:href="#m6676b96ef1" x="209.454545" y="256.32" style="stroke: #000000; stroke-width: 0.8"/>
      </g>
     </g>
     <g id="text_16">
      <!-- 1.5 -->
      <g transform="translate(201.502983 270.918437) scale(0.1 -0.1)">
       <use xlink:href="#DejaVuSans-31"/>
       <use xlink:href="#DejaVuSans-2e" transform="translate(63.623047 0)"/>
       <use xlink:href="#DejaVuSans-35" transform="translate(95.410156 0)"/>
      </g>
     </g>
    </g>
    <g id="xtick_32">
     <g id="line2d_45">
      <g>
       <use xlink:href="#m6676b96ef1" x="260.181818" y="256.32" style="stroke: #000000; stroke-width: 0.8"/>
      </g>
     </g>
     <g id="text_17">
      <!-- 2.0 -->
      <g transform="translate(252.230256 270.918437) scale(0.1 -0.1)">
       <use xlink:href="#DejaVuSans-32"/>
       <use xlink:href="#DejaVuSans-2e" transform="translate(63.623047 0)"/>
       <use xlink:href="#DejaVuSans-30" transform="translate(95.410156 0)"/>
      </g>
     </g>
    </g>
    <g id="xtick_33">
     <g id="line2d_46">
      <g>
       <use xlink:href="#m6676b96ef1" x="310.909091" y="256.32" style="stroke: #000000; stroke-width: 0.8"/>
      </g>
     </g>
     <g id="text_18">
      <!-- 2.5 -->
      <g transform="translate(302.957528 270.918437) scale(0.1 -0.1)">
       <use xlink:href="#DejaVuSans-32"/>
       <use xlink:href="#DejaVuSans-2e" transform="translate(63.623047 0)"/>
       <use xlink:href="#DejaVuSans-35" transform="translate(95.410156 0)"/>
      </g>
     </g>
    </g>
    <g id="xtick_34">
     <g id="line2d_47">
      <g>
       <use xlink:href="#m6676b96ef1" x="361.636364" y="256.32" style="stroke: #000000; stroke-width: 0.8"/>
      </g>
     </g>
     <g id="text_19">
      <!-- 3.0 -->
      <g transform="translate(353.684801 270.918437) scale(0.1 -0.1)">
       <defs>
        <path id="DejaVuSans-33" d="M 2597 2516 
Q 3050 2419 3304 2112 
Q 3559 1806 3559 1356 
Q 3559 666 3084 287 
Q 2609 -91 1734 -91 
Q 1441 -91 1130 -33 
Q 819 25 488 141 
L 488 750 
Q 750 597 1062 519 
Q 1375 441 1716 441 
Q 2309 441 2620 675 
Q 2931 909 2931 1356 
Q 2931 1769 2642 2001 
Q 2353 2234 1838 2234 
L 1294 2234 
L 1294 2753 
L 1863 2753 
Q 2328 2753 2575 2939 
Q 2822 3125 2822 3475 
Q 2822 3834 2567 4026 
Q 2313 4219 1838 4219 
Q 1578 4219 1281 4162 
Q 984 4106 628 3988 
L 628 4550 
Q 988 4650 1302 4700 
Q 1616 4750 1894 4750 
Q 2613 4750 3031 4423 
Q 3450 4097 3450 3541 
Q 3450 3153 3228 2886 
Q 3006 2619 2597 2516 
z
" transform="scale(0.015625)"/>
       </defs>
       <use xlink:href="#DejaVuSans-33"/>
       <use xlink:href="#DejaVuSans-2e" transform="translate(63.623047 0)"/>
       <use xlink:href="#DejaVuSans-30" transform="translate(95.410156 0)"/>
      </g>
     </g>
    </g>
    <g id="xtick_35">
     <g id="line2d_48">
      <g>
       <use xlink:href="#m6676b96ef1" x="412.363636" y="256.32" style="stroke: #000000; stroke-width: 0.8"/>
      </g>
     </g>
     <g id="text_20">
      <!-- 3.5 -->
      <g transform="translate(404.412074 270.918437) scale(0.1 -0.1)">
       <use xlink:href="#DejaVuSans-33"/>
       <use xlink:href="#DejaVuSans-2e" transform="translate(63.623047 0)"/>
       <use xlink:href="#DejaVuSans-35" transform="translate(95.410156 0)"/>
      </g>
     </g>
    </g>
    <g id="text_21">
     <!-- Time [s] -->
     <g transform="translate(239.852912 284.596563) scale(0.1 -0.1)">
      <defs>
       <path id="DejaVuSans-54" d="M -19 4666 
L 3928 4666 
L 3928 4134 
L 2272 4134 
L 2272 0 
L 1638 0 
L 1638 4134 
L -19 4134 
L -19 4666 
z
" transform="scale(0.015625)"/>
       <path id="DejaVuSans-69" d="M 603 3500 
L 1178 3500 
L 1178 0 
L 603 0 
L 603 3500 
z
M 603 4863 
L 1178 4863 
L 1178 4134 
L 603 4134 
L 603 4863 
z
" transform="scale(0.015625)"/>
       <path id="DejaVuSans-65" d="M 3597 1894 
L 3597 1613 
L 953 1613 
Q 991 1019 1311 708 
Q 1631 397 2203 397 
Q 2534 397 2845 478 
Q 3156 559 3463 722 
L 3463 178 
Q 3153 47 2828 -22 
Q 2503 -91 2169 -91 
Q 1331 -91 842 396 
Q 353 884 353 1716 
Q 353 2575 817 3079 
Q 1281 3584 2069 3584 
Q 2775 3584 3186 3129 
Q 3597 2675 3597 1894 
z
M 3022 2063 
Q 3016 2534 2758 2815 
Q 2500 3097 2075 3097 
Q 1594 3097 1305 2825 
Q 1016 2553 972 2059 
L 3022 2063 
z
" transform="scale(0.015625)"/>
      </defs>
      <use xlink:href="#DejaVuSans-54"/>
      <use xlink:href="#DejaVuSans-69" transform="translate(57.958984 0)"/>
      <use xlink:href="#DejaVuSans-6d" transform="translate(85.742188 0)"/>
      <use xlink:href="#DejaVuSans-65" transform="translate(183.154297 0)"/>
      <use xlink:href="#DejaVuSans-20" transform="translate(244.677734 0)"/>
      <use xlink:href="#DejaVuSans-5b" transform="translate(276.464844 0)"/>
      <use xlink:href="#DejaVuSans-73" transform="translate(315.478516 0)"/>
      <use xlink:href="#DejaVuSans-5d" transform="translate(367.578125 0)"/>
     </g>
    </g>
   </g>
   <g id="matplotlib.axis_10">
    <g id="ytick_10">
     <g id="line2d_49">
      <g>
       <use xlink:href="#m294f96ab02" x="108" y="251.46082" style="stroke: #000000; stroke-width: 0.8"/>
      </g>
     </g>
     <g id="text_22">
      <!-- −1 -->
      <g transform="translate(86.257812 255.260039) scale(0.1 -0.1)">
       <use xlink:href="#DejaVuSans-2212"/>
       <use xlink:href="#DejaVuSans-31" transform="translate(83.789062 0)"/>
      </g>
     </g>
    </g>
    <g id="ytick_11">
     <g id="line2d_50">
      <g>
       <use xlink:href="#m294f96ab02" x="108" y="208.787247" style="stroke: #000000; stroke-width: 0.8"/>
      </g>
     </g>
     <g id="text_23">
      <!-- 0 -->
      <g transform="translate(94.6375 212.586466) scale(0.1 -0.1)">
       <use xlink:href="#DejaVuSans-30"/>
      </g>
     </g>
    </g>
    <g id="text_24">
     <!-- $\phi$ [rad] -->
     <g transform="translate(64.254687 240.808235) rotate(-90) scale(0.1 -0.1)">
      <defs>
       <path id="DejaVuSans-Oblique-3d5" d="M 2991 4863 
L 2738 3572 
Q 3363 3572 3684 3094 
Q 4016 2606 3850 1747 
Q 3681 888 3159 400 
Q 2653 -78 2028 -78 
L 1784 -1331 
L 1213 -1331 
L 1456 -78 
Q 834 -78 509 400 
Q 178 888 347 1747 
Q 513 2606 1034 3094 
Q 1544 3572 2166 3572 
L 2419 4863 
L 2991 4863 
z
M 2128 434 
Q 2481 434 2784 756 
Q 3116 1116 3244 1747 
Q 3369 2372 3169 2738 
Q 2991 3059 2638 3059 
L 2128 434 
z
M 1556 434 
L 2066 3059 
Q 1716 3059 1413 2738 
Q 1072 2372 953 1747 
Q 834 1116 1028 756 
Q 1203 434 1556 434 
z
" transform="scale(0.015625)"/>
       <path id="DejaVuSans-72" d="M 2631 2963 
Q 2534 3019 2420 3045 
Q 2306 3072 2169 3072 
Q 1681 3072 1420 2755 
Q 1159 2438 1159 1844 
L 1159 0 
L 581 0 
L 581 3500 
L 1159 3500 
L 1159 2956 
Q 1341 3275 1631 3429 
Q 1922 3584 2338 3584 
Q 2397 3584 2469 3576 
Q 2541 3569 2628 3553 
L 2631 2963 
z
" transform="scale(0.015625)"/>
       <path id="DejaVuSans-61" d="M 2194 1759 
Q 1497 1759 1228 1600 
Q 959 1441 959 1056 
Q 959 750 1161 570 
Q 1363 391 1709 391 
Q 2188 391 2477 730 
Q 2766 1069 2766 1631 
L 2766 1759 
L 2194 1759 
z
M 3341 1997 
L 3341 0 
L 2766 0 
L 2766 531 
Q 2569 213 2275 61 
Q 1981 -91 1556 -91 
Q 1019 -91 701 211 
Q 384 513 384 1019 
Q 384 1609 779 1909 
Q 1175 2209 1959 2209 
L 2766 2209 
L 2766 2266 
Q 2766 2663 2505 2880 
Q 2244 3097 1772 3097 
Q 1472 3097 1187 3025 
Q 903 2953 641 2809 
L 641 3341 
Q 956 3463 1253 3523 
Q 1550 3584 1831 3584 
Q 2591 3584 2966 3190 
Q 3341 2797 3341 1997 
z
" transform="scale(0.015625)"/>
       <path id="DejaVuSans-64" d="M 2906 2969 
L 2906 4863 
L 3481 4863 
L 3481 0 
L 2906 0 
L 2906 525 
Q 2725 213 2448 61 
Q 2172 -91 1784 -91 
Q 1150 -91 751 415 
Q 353 922 353 1747 
Q 353 2572 751 3078 
Q 1150 3584 1784 3584 
Q 2172 3584 2448 3432 
Q 2725 3281 2906 2969 
z
M 947 1747 
Q 947 1113 1208 752 
Q 1469 391 1925 391 
Q 2381 391 2643 752 
Q 2906 1113 2906 1747 
Q 2906 2381 2643 2742 
Q 2381 3103 1925 3103 
Q 1469 3103 1208 2742 
Q 947 2381 947 1747 
z
" transform="scale(0.015625)"/>
      </defs>
      <use xlink:href="#DejaVuSans-Oblique-3d5" transform="translate(0 0.015625)"/>
      <use xlink:href="#DejaVuSans-20" transform="translate(65.966797 0.015625)"/>
      <use xlink:href="#DejaVuSans-5b" transform="translate(97.753906 0.015625)"/>
      <use xlink:href="#DejaVuSans-72" transform="translate(136.767578 0.015625)"/>
      <use xlink:href="#DejaVuSans-61" transform="translate(177.880859 0.015625)"/>
      <use xlink:href="#DejaVuSans-64" transform="translate(239.160156 0.015625)"/>
      <use xlink:href="#DejaVuSans-5d" transform="translate(302.636719 0.015625)"/>
     </g>
    </g>
   </g>
   <g id="line2d_51">
    <path d="M 107.718182 208.243758 
L 108 208.677855 
L 109.409091 207.739671 
L 109.690909 207.781878 
L 110.536364 209.180111 
L 111.1 210.403642 
L 111.381818 210.233862 
L 112.790909 207.782794 
L 113.636364 209.11354 
L 114.2 208.831562 
L 114.481818 208.924704 
L 115.045455 209.65191 
L 115.327273 209.421638 
L 115.890909 208.33825 
L 116.454545 209.28491 
L 116.736364 209.840491 
L 117.3 210.336602 
L 117.581818 210.385942 
L 118.427273 208.722202 
L 118.990909 208.267957 
L 119.272727 208.43295 
L 119.836364 209.330826 
L 120.118182 209.275647 
L 120.963636 208.788642 
L 121.527273 208.685379 
L 122.372727 209.427797 
L 122.936364 210.414718 
L 123.218182 210.344986 
L 124.063636 208.888003 
L 124.627273 208.339274 
L 125.754545 208.493099 
L 126.318182 208.426776 
L 126.881818 208.65681 
L 127.163636 208.609916 
L 127.727273 208.192303 
L 128.009091 208.514768 
L 128.572727 209.716883 
L 129.136364 209.657401 
L 129.418182 209.554553 
L 130.263636 207.862598 
L 130.827273 207.884859 
L 131.109091 208.099403 
L 131.672727 209.081159 
L 131.954545 209.128084 
L 132.8 208.447627 
L 133.363636 208.269536 
L 134.209091 209.133946 
L 134.772727 210.239595 
L 135.054545 210.420566 
L 135.9 208.965561 
L 136.463636 208.275458 
L 136.745455 208.491358 
L 137.309091 209.333909 
L 138.154545 209.060234 
L 139 209.518133 
L 139.563636 208.917076 
L 139.845455 209.141395 
L 140.409091 210.802616 
L 140.690909 210.94437 
L 141.254545 210.614676 
L 142.1 209.068542 
L 142.945455 209.171805 
L 143.509091 210.225511 
L 143.790909 210.473088 
L 144.636364 209.834037 
L 145.2 209.2404 
L 145.481818 209.487799 
L 146.890909 211.481544 
L 147.736364 209.678432 
L 148.3 208.872514 
L 148.581818 208.867121 
L 149.145455 209.63885 
L 149.427273 209.596048 
L 149.990909 209.135979 
L 150.836364 209.125144 
L 151.4 209.237897 
L 151.681818 209.448408 
L 152.245455 210.562042 
L 152.527273 210.662517 
L 153.372727 209.268093 
L 153.936364 208.065978 
L 154.5 208.043182 
L 154.781818 208.099726 
L 155.627273 209.485744 
L 157.036364 208.060724 
L 157.318182 208.236367 
L 158.163636 209.616751 
L 158.727273 210.173286 
L 159.572727 208.214818 
L 160.136364 207.821533 
L 160.418182 207.888369 
L 160.981818 209.009329 
L 161.263636 209.15456 
L 161.827273 208.627707 
L 162.390909 208.585871 
L 162.954545 208.691372 
L 163.518182 208.921914 
L 164.081818 210.465371 
L 164.363636 210.903492 
L 165.772727 208.804963 
L 166.054545 208.847887 
L 167.181818 209.78833 
L 167.745455 210.109879 
L 168.027273 210.233907 
L 168.309091 210.219842 
L 168.872727 209.277443 
L 169.154545 209.324443 
L 170 211.288122 
L 170.563636 211.792714 
L 171.127273 210.587927 
L 171.409091 209.875562 
L 171.972727 209.558441 
L 172.254545 209.528685 
L 172.818182 210.753062 
L 173.1 211.024727 
L 173.945455 210.102896 
L 174.509091 210.073214 
L 175.354545 210.538833 
L 176.2 212.182832 
L 177.045455 210.116342 
L 177.890909 209.252985 
L 178.736364 209.034171 
L 179.863636 208.968989 
L 180.990909 208.764511 
L 181.554545 209.595603 
L 181.836364 209.720356 
L 182.681818 208.555046 
L 183.245455 207.323249 
L 183.527273 207.188553 
L 184.090909 207.203394 
L 184.936364 208.231339 
L 186.345455 207.495104 
L 186.627273 207.637224 
L 188.036364 209.406266 
L 189.163636 207.903719 
L 189.445455 207.760899 
L 189.727273 207.789564 
L 190.290909 208.617462 
L 190.572727 208.770477 
L 191.136364 208.473658 
L 191.418182 208.709807 
L 191.981818 209.585422 
L 192.545455 209.259325 
L 192.827273 209.050273 
L 193.672727 210.843532 
L 194.518182 210.684334 
L 195.081818 210.31331 
L 195.363636 210.297802 
L 195.927273 210.512995 
L 197.054545 211.406137 
L 197.618182 211.356927 
L 198.181818 210.375171 
L 198.463636 210.230765 
L 199.872727 213.412423 
L 200.154545 212.945715 
L 200.718182 211.034165 
L 201.563636 210.252284 
L 202.127273 210.934967 
L 202.409091 211.0775 
L 202.972727 210.298351 
L 203.254545 210.136021 
L 203.818182 210.336373 
L 204.381818 210.014473 
L 204.663636 209.79928 
L 205.509091 211.681375 
L 207.2 208.470379 
L 208.045455 208.542431 
L 208.609091 208.883773 
L 209.172727 208.416447 
L 209.454545 208.130759 
L 211.427273 209.410348 
L 211.709091 209.462966 
L 211.990909 209.133136 
L 212.554545 207.910429 
L 212.836364 207.786553 
L 213.4 207.964644 
L 214.245455 208.695241 
L 215.090909 208.720513 
L 215.654545 208.419839 
L 215.936364 208.525186 
L 217.345455 210.54842 
L 217.909091 209.825168 
L 218.190909 209.401628 
L 219.036364 209.274301 
L 219.881818 210.166029 
L 220.445455 210.076983 
L 220.727273 210.338035 
L 221.290909 211.302696 
L 221.572727 211.266588 
L 222.136364 210.888144 
L 222.981818 212.953994 
L 223.827273 213.602451 
L 224.390909 213.433941 
L 224.672727 213.553161 
L 225.518182 214.363517 
L 226.081818 214.597966 
L 226.927273 216.587313 
L 227.490909 216.505688 
L 227.772727 216.580599 
L 228.9 218.305183 
L 229.463636 219.459542 
L 230.872727 223.276246 
L 231.436364 222.089348 
L 231.718182 221.807833 
L 232.563636 224.545747 
L 233.409091 225.646869 
L 233.972727 226.626371 
L 234.536364 226.974717 
L 234.818182 227.108285 
L 235.663636 230.337568 
L 236.509091 232.198086 
L 237.354545 234.894386 
L 238.763636 236.527647 
L 239.609091 238.44907 
L 240.454545 239.389777 
L 241.3 241.409287 
L 241.863636 242.002737 
L 242.145455 243.026608 
L 242.709091 245.96569 
L 242.990909 245.880725 
L 243.554545 245.170994 
L 244.118182 245.317525 
L 244.4 245.509509 
L 245.245455 247.380876 
L 245.809091 247.885467 
L 246.090909 247.793454 
L 246.654545 247.110771 
L 246.936364 247.820627 
L 247.5 249.861255 
L 248.627273 249.289488 
L 249.472727 249.184684 
L 249.754545 249.109516 
L 250.036364 249.373641 
L 250.6 250.479948 
L 250.881818 250.358886 
L 252.290909 248.288215 
L 253.136364 249.37235 
L 253.7 249.261043 
L 253.981818 249.358695 
L 254.545455 249.908185 
L 254.827273 249.697441 
L 255.390909 248.680837 
L 255.672727 248.716505 
L 256.8 249.287349 
L 257.081818 249.306041 
L 257.927273 248.233427 
L 258.772727 248.441164 
L 259.336364 248.907207 
L 260.181818 251.048144 
L 261.027273 249.100566 
L 261.872727 249.075114 
L 263 249.79597 
L 263.563636 250.323179 
L 264.127273 250.97618 
L 264.972727 249.880563 
L 265.818182 251.792218 
L 266.381818 251.931422 
L 266.663636 251.831286 
L 268.072727 250.276739 
L 268.636364 251.26301 
L 268.918182 251.835841 
L 269.763636 251.928136 
L 270.327273 252.551455 
L 270.609091 252.61119 
L 271.172727 251.935928 
L 271.454545 252.145084 
L 272.018182 253.355294 
L 272.3 253.27908 
L 272.863636 252.802855 
L 273.709091 250.984922 
L 274.554545 251.160093 
L 275.681818 252.487242 
L 275.963636 252.754661 
L 276.245455 252.422785 
L 276.809091 251.23551 
L 277.372727 251.37917 
L 277.654545 251.478011 
L 278.218182 251.388965 
L 278.5 251.223341 
L 279.345455 249.911643 
L 280.472727 249.43397 
L 280.754545 249.359765 
L 281.6 251.136332 
L 282.727273 249.10465 
L 283.009091 248.711365 
L 283.290909 248.582961 
L 283.854545 249.161758 
L 284.136364 249.053838 
L 284.7 248.262572 
L 284.981818 248.253413 
L 285.545455 248.512348 
L 286.390909 246.770157 
L 287.236364 248.391959 
L 287.8 248.688777 
L 288.081818 248.515554 
L 288.927273 247.180583 
L 289.490909 246.586945 
L 290.336364 249.390634 
L 291.181818 247.403199 
L 292.027273 247.713698 
L 292.872727 247.529374 
L 293.436364 247.61842 
L 294.281818 248.626861 
L 295.690909 248.450372 
L 295.972727 248.628573 
L 296.536364 249.710998 
L 296.818182 249.887231 
L 297.663636 249.795881 
L 298.227273 249.855244 
L 299.072727 248.321924 
L 299.918182 249.39795 
L 300.481818 250.775339 
L 300.763636 251.045873 
L 302.172727 250.230898 
L 303.3 251.763395 
L 303.581818 251.931906 
L 303.863636 251.900176 
L 304.709091 250.418082 
L 305.272727 250.234919 
L 305.554545 250.722296 
L 306.118182 252.406742 
L 306.681818 252.728525 
L 306.963636 252.80413 
L 307.809091 252.0272 
L 308.372727 251.960415 
L 308.654545 252.092574 
L 309.218182 252.879143 
L 309.5 252.808895 
L 310.345455 251.484103 
L 310.909091 250.407273 
L 311.190909 250.758753 
L 311.754545 252.141222 
L 312.318182 252.890689 
L 312.6 252.985285 
L 313.445455 251.543014 
L 314.009091 251.00132 
L 314.290909 251.146227 
L 314.854545 251.799228 
L 315.418182 251.261393 
L 315.981818 250.524689 
L 316.545455 249.750957 
L 317.109091 249.435916 
L 317.390909 249.648232 
L 317.954545 251.061397 
L 318.236364 251.112213 
L 319.645455 249.68916 
L 320.490909 249.427057 
L 321.336364 250.224061 
L 321.9 250.238714 
L 322.181818 249.966344 
L 322.745455 249.016524 
L 323.309091 248.823858 
L 323.590909 248.776235 
L 324.436364 250.377493 
L 325 250.113738 
L 325.281818 249.841264 
L 325.845455 248.676251 
L 326.127273 248.699611 
L 326.690909 249.938829 
L 327.254545 250.334844 
L 327.536364 250.457282 
L 328.381818 250.353811 
L 329.227273 249.257482 
L 330.072727 249.997774 
L 330.636364 250.876958 
L 330.918182 250.988078 
L 331.481818 250.807674 
L 332.327273 251.450014 
L 333.172727 251.099508 
L 334.018182 251.654292 
L 334.581818 251.416837 
L 335.145455 250.557992 
L 335.427273 250.04598 
L 335.709091 250.144064 
L 336.272727 250.700599 
L 337.118182 251.938822 
L 337.963636 251.011913 
L 338.527273 250.887362 
L 338.809091 250.961191 
L 339.372727 251.376737 
L 339.936364 251.314048 
L 340.218182 251.239844 
L 341.063636 248.766484 
L 341.909091 249.818528 
L 342.472727 251.302621 
L 342.754545 251.445569 
L 343.6 249.922941 
L 344.163636 249.20494 
L 344.727273 249.518822 
L 345.009091 249.70088 
L 345.854545 248.014337 
L 346.418182 245.619568 
L 346.7 244.997615 
L 347.545455 245.996707 
L 348.109091 247.057833 
L 348.390909 246.505691 
L 349.236364 244.111731 
L 349.8 242.8905 
L 350.363636 242.40817 
L 350.645455 241.786113 
L 351.490909 238.051288 
L 352.054545 236.388164 
L 352.336364 236.135369 
L 352.9 236.135369 
L 353.745455 232.819863 
L 354.309091 232.497496 
L 354.590909 232.206711 
L 355.154545 230.786029 
L 355.436364 229.63059 
L 356.845455 221.594324 
L 357.127273 221.439849 
L 357.690909 221.492641 
L 358.536364 217.494791 
L 359.1 212.263364 
L 359.381818 211.090099 
L 359.945455 213.293977 
L 360.227273 213.625524 
L 360.790909 213.172875 
L 361.354545 209.761688 
L 361.918182 206.529737 
L 362.481818 204.079875 
L 363.045455 204.455717 
L 363.327273 204.073397 
L 363.890909 201.171996 
L 364.172727 200.472617 
L 364.736364 200.353889 
L 365.3 201.721142 
L 365.581818 202.519734 
L 366.145455 201.089109 
L 367.554545 197.319213 
L 367.836364 197.059121 
L 368.118182 196.418116 
L 368.681818 194.117965 
L 368.963636 194.061176 
L 369.527273 195.094218 
L 370.372727 199.535264 
L 371.218182 197.286508 
L 371.781818 196.846915 
L 372.063636 196.820368 
L 372.627273 197.376903 
L 372.909091 196.787941 
L 373.472727 194.354028 
L 373.754545 195.173589 
L 374.6 199.737131 
L 375.163636 202.931062 
L 376.009091 201.483061 
L 376.854545 201.015572 
L 377.981818 199.678065 
L 378.263636 199.309083 
L 378.827273 200.235916 
L 379.109091 200.882553 
L 379.954545 206.10282 
L 380.8 204.095104 
L 381.363636 203.674161 
L 381.645455 203.897215 
L 383.054545 205.894438 
L 383.9 200.380662 
L 384.463636 201.241436 
L 384.745455 202.256289 
L 385.309091 206.129771 
L 385.590909 206.467625 
L 387 202.645507 
L 387.845455 204.492045 
L 388.409091 204.618193 
L 388.690909 204.149932 
L 389.536364 199.85286 
L 390.1 199.044029 
L 390.381818 200.209665 
L 390.945455 203.912477 
L 391.227273 203.675052 
L 391.790909 202.643014 
L 392.354545 200.884364 
L 392.636364 200.409721 
L 393.481818 202.068165 
L 394.045455 202.565336 
L 394.327273 202.019676 
L 394.890909 200.095367 
L 395.454545 199.466137 
L 395.736364 199.257078 
L 396.581818 203.050911 
L 397.427273 201.593938 
L 398.272727 201.53732 
L 399.118182 200.955585 
L 399.681818 200.369368 
L 400.527273 202.510202 
L 401.090909 205.114785 
L 401.372727 205.475624 
L 401.936364 202.669562 
L 402.218182 202.098945 
L 402.781818 202.596116 
L 403.627273 204.102085 
L 404.190909 203.986385 
L 404.472727 203.865003 
L 405.036364 202.963839 
L 405.318182 202.756191 
L 405.881818 203.913783 
L 406.445455 206.060458 
L 406.727273 207.298642 
L 407.009091 207.517911 
L 407.572727 206.887829 
L 408.418182 204.985803 
L 409.263636 205.862605 
L 410.109091 205.862501 
L 411.518182 205.352047 
L 412.081818 207.116634 
L 412.363636 208.125817 
L 412.645455 208.258717 
L 412.645455 208.258717 
" clip-path="url(#pe324ee287c)" style="fill: none; stroke: #1f77b4; stroke-linecap: square"/>
   </g>
   <g id="patch_15">
    <path d="M 108 256.32 
L 108 191.096471 
" style="fill: none; stroke: #000000; stroke-width: 0.8; stroke-linejoin: miter; stroke-linecap: square"/>
   </g>
   <g id="patch_16">
    <path d="M 108 256.32 
L 412.363636 256.32 
" style="fill: none; stroke: #000000; stroke-width: 0.8; stroke-linejoin: miter; stroke-linecap: square"/>
   </g>
  </g>
  <g id="axes_6">
   <g id="patch_17">
    <path d="M 473.236364 256.32 
L 777.6 256.32 
L 777.6 191.096471 
L 473.236364 191.096471 
z
" style="fill: #ffffff"/>
   </g>
   <g id="matplotlib.axis_11">
    <g id="xtick_36">
     <g id="line2d_52">
      <g>
       <use xlink:href="#m6676b96ef1" x="473.236364" y="256.32" style="stroke: #000000; stroke-width: 0.8"/>
      </g>
     </g>
     <g id="text_25">
      <!-- 0.5 -->
      <g transform="translate(465.284801 270.918437) scale(0.1 -0.1)">
       <use xlink:href="#DejaVuSans-30"/>
       <use xlink:href="#DejaVuSans-2e" transform="translate(63.623047 0)"/>
       <use xlink:href="#DejaVuSans-35" transform="translate(95.410156 0)"/>
      </g>
     </g>
    </g>
    <g id="xtick_37">
     <g id="line2d_53">
      <g>
       <use xlink:href="#m6676b96ef1" x="523.963636" y="256.32" style="stroke: #000000; stroke-width: 0.8"/>
      </g>
     </g>
     <g id="text_26">
      <!-- 1.0 -->
      <g transform="translate(516.012074 270.918437) scale(0.1 -0.1)">
       <use xlink:href="#DejaVuSans-31"/>
       <use xlink:href="#DejaVuSans-2e" transform="translate(63.623047 0)"/>
       <use xlink:href="#DejaVuSans-30" transform="translate(95.410156 0)"/>
      </g>
     </g>
    </g>
    <g id="xtick_38">
     <g id="line2d_54">
      <g>
       <use xlink:href="#m6676b96ef1" x="574.690909" y="256.32" style="stroke: #000000; stroke-width: 0.8"/>
      </g>
     </g>
     <g id="text_27">
      <!-- 1.5 -->
      <g transform="translate(566.739347 270.918437) scale(0.1 -0.1)">
       <use xlink:href="#DejaVuSans-31"/>
       <use xlink:href="#DejaVuSans-2e" transform="translate(63.623047 0)"/>
       <use xlink:href="#DejaVuSans-35" transform="translate(95.410156 0)"/>
      </g>
     </g>
    </g>
    <g id="xtick_39">
     <g id="line2d_55">
      <g>
       <use xlink:href="#m6676b96ef1" x="625.418182" y="256.32" style="stroke: #000000; stroke-width: 0.8"/>
      </g>
     </g>
     <g id="text_28">
      <!-- 2.0 -->
      <g transform="translate(617.466619 270.918437) scale(0.1 -0.1)">
       <use xlink:href="#DejaVuSans-32"/>
       <use xlink:href="#DejaVuSans-2e" transform="translate(63.623047 0)"/>
       <use xlink:href="#DejaVuSans-30" transform="translate(95.410156 0)"/>
      </g>
     </g>
    </g>
    <g id="xtick_40">
     <g id="line2d_56">
      <g>
       <use xlink:href="#m6676b96ef1" x="676.145455" y="256.32" style="stroke: #000000; stroke-width: 0.8"/>
      </g>
     </g>
     <g id="text_29">
      <!-- 2.5 -->
      <g transform="translate(668.193892 270.918437) scale(0.1 -0.1)">
       <use xlink:href="#DejaVuSans-32"/>
       <use xlink:href="#DejaVuSans-2e" transform="translate(63.623047 0)"/>
       <use xlink:href="#DejaVuSans-35" transform="translate(95.410156 0)"/>
      </g>
     </g>
    </g>
    <g id="xtick_41">
     <g id="line2d_57">
      <g>
       <use xlink:href="#m6676b96ef1" x="726.872727" y="256.32" style="stroke: #000000; stroke-width: 0.8"/>
      </g>
     </g>
     <g id="text_30">
      <!-- 3.0 -->
      <g transform="translate(718.921165 270.918437) scale(0.1 -0.1)">
       <use xlink:href="#DejaVuSans-33"/>
       <use xlink:href="#DejaVuSans-2e" transform="translate(63.623047 0)"/>
       <use xlink:href="#DejaVuSans-30" transform="translate(95.410156 0)"/>
      </g>
     </g>
    </g>
    <g id="xtick_42">
     <g id="line2d_58">
      <g>
       <use xlink:href="#m6676b96ef1" x="777.6" y="256.32" style="stroke: #000000; stroke-width: 0.8"/>
      </g>
     </g>
     <g id="text_31">
      <!-- 3.5 -->
      <g transform="translate(769.648437 270.918437) scale(0.1 -0.1)">
       <use xlink:href="#DejaVuSans-33"/>
       <use xlink:href="#DejaVuSans-2e" transform="translate(63.623047 0)"/>
       <use xlink:href="#DejaVuSans-35" transform="translate(95.410156 0)"/>
      </g>
     </g>
    </g>
    <g id="text_32">
     <!-- Time [s] -->
     <g transform="translate(605.089276 284.596563) scale(0.1 -0.1)">
      <use xlink:href="#DejaVuSans-54"/>
      <use xlink:href="#DejaVuSans-69" transform="translate(57.958984 0)"/>
      <use xlink:href="#DejaVuSans-6d" transform="translate(85.742188 0)"/>
      <use xlink:href="#DejaVuSans-65" transform="translate(183.154297 0)"/>
      <use xlink:href="#DejaVuSans-20" transform="translate(244.677734 0)"/>
      <use xlink:href="#DejaVuSans-5b" transform="translate(276.464844 0)"/>
      <use xlink:href="#DejaVuSans-73" transform="translate(315.478516 0)"/>
      <use xlink:href="#DejaVuSans-5d" transform="translate(367.578125 0)"/>
     </g>
    </g>
   </g>
   <g id="matplotlib.axis_12">
    <g id="ytick_12">
     <g id="line2d_59">
      <g>
       <use xlink:href="#m294f96ab02" x="473.236364" y="248.056903" style="stroke: #000000; stroke-width: 0.8"/>
      </g>
     </g>
     <g id="text_33">
      <!-- −5 -->
      <g transform="translate(451.494176 251.856121) scale(0.1 -0.1)">
       <use xlink:href="#DejaVuSans-2212"/>
       <use xlink:href="#DejaVuSans-35" transform="translate(83.789062 0)"/>
      </g>
     </g>
    </g>
    <g id="ytick_13">
     <g id="line2d_60">
      <g>
       <use xlink:href="#m294f96ab02" x="473.236364" y="226.863507" style="stroke: #000000; stroke-width: 0.8"/>
      </g>
     </g>
     <g id="text_34">
      <!-- 0 -->
      <g transform="translate(459.873864 230.662726) scale(0.1 -0.1)">
       <use xlink:href="#DejaVuSans-30"/>
      </g>
     </g>
    </g>
    <g id="ytick_14">
     <g id="line2d_61">
      <g>
       <use xlink:href="#m294f96ab02" x="473.236364" y="205.670111" style="stroke: #000000; stroke-width: 0.8"/>
      </g>
     </g>
     <g id="text_35">
      <!-- 5 -->
      <g transform="translate(459.873864 209.46933) scale(0.1 -0.1)">
       <use xlink:href="#DejaVuSans-35"/>
      </g>
     </g>
    </g>
    <g id="text_36">
     <!-- $\dot{\phi}$ [rad/s] -->
     <g transform="translate(435.853551 245.108235) rotate(-90) scale(0.1 -0.1)">
      <defs>
       <path id="DejaVuSans-307" d="M -1894 4863 
L -1319 4863 
L -1319 4134 
L -1894 4134 
L -1894 4863 
z
M -1600 3584 
L -1600 3584 
z
" transform="scale(0.015625)"/>
      </defs>
      <use xlink:href="#DejaVuSans-307" transform="translate(66.085449 33.015625)"/>
      <use xlink:href="#DejaVuSans-Oblique-3d5" transform="translate(0 0.53125)"/>
      <use xlink:href="#DejaVuSans-20" transform="translate(65.966797 0.53125)"/>
      <use xlink:href="#DejaVuSans-5b" transform="translate(97.753906 0.53125)"/>
      <use xlink:href="#DejaVuSans-72" transform="translate(136.767578 0.53125)"/>
      <use xlink:href="#DejaVuSans-61" transform="translate(177.880859 0.53125)"/>
      <use xlink:href="#DejaVuSans-64" transform="translate(239.160156 0.53125)"/>
      <use xlink:href="#DejaVuSans-2f" transform="translate(302.636719 0.53125)"/>
      <use xlink:href="#DejaVuSans-73" transform="translate(336.328125 0.53125)"/>
      <use xlink:href="#DejaVuSans-5d" transform="translate(388.427734 0.53125)"/>
     </g>
    </g>
   </g>
   <g id="line2d_62">
    <path d="M 472.954545 229.918934 
L 474.927273 229.997475 
L 476.054545 229.735654 
L 476.9 229.310786 
L 477.745455 228.683748 
L 479.154545 227.387137 
L 480.563636 226.150567 
L 481.690909 225.475637 
L 482.254545 225.289928 
L 483.1 225.191544 
L 483.945455 225.271226 
L 485.354545 225.633097 
L 487.609091 226.236395 
L 489.863636 226.551775 
L 492.118182 226.65094 
L 493.809091 226.484646 
L 496.627273 226.046084 
L 497.472727 226.166154 
L 498.036364 226.375805 
L 498.881818 226.916279 
L 500.009091 227.992113 
L 502.263636 230.340433 
L 502.827273 230.673721 
L 503.390909 230.843055 
L 504.236364 230.57285 
L 505.081818 229.740844 
L 505.927273 228.436761 
L 509.027273 222.689332 
L 509.872727 221.926384 
L 510.436364 221.735714 
L 511.281818 221.991975 
L 512.409091 223.178605 
L 514.945455 226.517755 
L 515.509091 226.9275 
L 516.072727 227.161239 
L 516.918182 226.990405 
L 517.763636 226.374248 
L 519.454545 224.430044 
L 520.581818 223.285276 
L 521.145455 222.935082 
L 521.709091 222.735351 
L 522.554545 222.84713 
L 523.4 223.355154 
L 524.527273 224.45383 
L 526.781818 226.801146 
L 527.627273 227.395927 
L 528.190909 227.67092 
L 529.318182 227.980245 
L 534.672727 228.855147 
L 535.236364 228.78218 
L 536.081818 228.426285 
L 536.927273 227.761289 
L 537.772727 226.814516 
L 540.590909 223.315481 
L 541.436364 222.733987 
L 542.281818 222.542977 
L 543.127273 222.691241 
L 544.818182 223.511825 
L 545.945455 223.944747 
L 546.509091 224.013328 
L 547.354545 223.928226 
L 548.481818 223.565268 
L 549.609091 223.234751 
L 550.172727 223.193935 
L 551.018182 223.480694 
L 551.863636 224.216448 
L 552.990909 225.821857 
L 555.527273 229.894486 
L 556.090909 230.412129 
L 556.654545 230.740573 
L 557.218182 230.829525 
L 558.063636 230.510348 
L 559.472727 229.231631 
L 560.6 228.1941 
L 561.445455 227.716797 
L 562.290909 227.611132 
L 563.136364 227.868951 
L 564.263636 228.576176 
L 565.672727 229.447138 
L 566.236364 229.628608 
L 566.8 229.700013 
L 567.645455 229.460842 
L 568.772727 228.692261 
L 571.027273 226.947103 
L 571.872727 226.631064 
L 572.436364 226.563205 
L 573.563636 226.815685 
L 574.972727 227.448384 
L 576.381818 227.981937 
L 577.509091 228.105818 
L 578.918182 228.014247 
L 580.045455 228.000069 
L 580.890909 228.20262 
L 581.736364 228.663979 
L 582.581818 229.418984 
L 583.990909 231.225617 
L 586.809091 234.962315 
L 587.936364 235.896885 
L 588.781818 236.345867 
L 590.190909 236.842275 
L 591.318182 237.329146 
L 592.163636 237.992132 
L 593.290909 239.49181 
L 594.136364 241.07342 
L 594.981818 243.04883 
L 596.390909 246.829502 
L 597.8 250.481453 
L 598.645455 252.100679 
L 599.490909 253.064176 
L 600.054545 253.355294 
L 600.9 253.045928 
L 601.745455 251.990082 
L 602.872727 249.664338 
L 604 246.763192 
L 607.663636 237.037196 
L 609.636364 232.383523 
L 611.045455 229.492164 
L 611.890909 228.230801 
L 612.736364 227.345195 
L 613.581818 226.948096 
L 614.427273 226.999485 
L 615.554545 227.512751 
L 616.681818 228.0816 
L 617.527273 228.199125 
L 618.372727 227.859811 
L 619.218182 227.003035 
L 620.345455 225.226065 
L 622.036364 222.385656 
L 622.6 221.752863 
L 623.163636 221.333366 
L 623.727273 221.272462 
L 624.290909 221.58753 
L 624.572727 221.789735 
L 625.418182 222.984044 
L 627.390909 227.073043 
L 628.236364 228.600968 
L 628.8 229.361475 
L 629.363636 229.877902 
L 630.209091 230.030006 
L 631.054545 229.557446 
L 632.181818 228.254433 
L 634.154545 225.694114 
L 635 225.033423 
L 635.845455 224.735092 
L 636.690909 224.756024 
L 639.790909 225.432049 
L 640.636364 225.179765 
L 641.763636 224.470948 
L 644.581818 222.370393 
L 645.427273 222.204396 
L 646.272727 222.381801 
L 647.118182 222.859038 
L 648.245455 223.836202 
L 651.627273 226.99837 
L 654.445455 229.344587 
L 656.418182 231.054875 
L 657.545455 231.719098 
L 658.109091 231.89888 
L 658.954545 231.899335 
L 659.8 231.608456 
L 660.927273 230.894837 
L 663.181818 229.298901 
L 664.027273 228.95158 
L 664.872727 228.787213 
L 666 228.769018 
L 667.690909 228.748356 
L 668.818182 228.490592 
L 669.945455 228.002098 
L 672.2 226.893942 
L 673.327273 226.688841 
L 674.172727 226.738388 
L 675.3 227.034617 
L 677.272727 227.643195 
L 678.118182 227.668777 
L 678.681818 227.554323 
L 679.527273 227.136307 
L 680.372727 226.432174 
L 681.5 225.152085 
L 684.036364 222.102577 
L 684.881818 221.574096 
L 685.727273 221.530832 
L 686.572727 222.026184 
L 687.418182 223.043575 
L 688.545455 225.099392 
L 691.363636 230.706247 
L 692.209091 231.542516 
L 692.772727 231.769977 
L 693.618182 231.450736 
L 694.463636 230.414014 
L 695.872727 227.759695 
L 697.563636 224.470074 
L 698.409091 223.403924 
L 699.254545 222.877515 
L 700.1 222.885916 
L 700.945455 223.302001 
L 703.763636 225.209604 
L 704.609091 225.396611 
L 705.736364 225.362044 
L 707.427273 225.275432 
L 708.272727 225.412236 
L 710.245455 225.884667 
L 711.090909 225.627914 
L 711.936364 224.691139 
L 712.781818 222.860909 
L 713.627273 220.068212 
L 714.472727 216.299557 
L 718.136364 197.785481 
L 718.981818 195.342831 
L 719.827273 194.172516 
L 720.390909 194.061176 
L 720.672727 194.131419 
L 721.518182 194.963092 
L 722.927273 197.278703 
L 724.054545 198.927343 
L 724.618182 199.520009 
L 725.463636 199.956295 
L 726.309091 200.001808 
L 727.718182 199.827798 
L 728.563636 200.109561 
L 729.409091 201.030527 
L 730.254545 202.751613 
L 731.1 205.345986 
L 731.945455 208.591814 
L 733.918182 217.69234 
L 735.327273 223.634341 
L 736.172727 226.486474 
L 736.736364 227.972666 
L 737.3 229.186045 
L 738.145455 230.355253 
L 738.990909 230.952963 
L 739.836364 231.154211 
L 742.936364 231.363804 
L 745.754545 232.255811 
L 746.318182 232.193106 
L 746.881818 232.014801 
L 747.727273 231.247889 
L 748.572727 230.05641 
L 749.418182 228.448501 
L 750.827273 225.184183 
L 752.8 220.610099 
L 753.645455 219.036619 
L 754.490909 217.836902 
L 755.336364 217.057065 
L 756.181818 216.758015 
L 757.027273 216.957134 
L 757.872727 217.716181 
L 758.718182 219.039705 
L 759.563636 220.919493 
L 760.690909 224.172422 
L 764.072727 234.510732 
L 764.918182 235.790673 
L 765.763636 236.180094 
L 766.609091 235.64618 
L 767.454545 234.403268 
L 768.863636 231.400053 
L 770.272727 228.622847 
L 770.836364 227.821222 
L 771.4 227.209476 
L 772.245455 226.797923 
L 773.090909 226.843596 
L 774.218182 227.318247 
L 775.627273 227.897036 
L 776.190909 227.993249 
L 777.036364 227.896024 
L 777.881818 227.567645 
L 777.881818 227.567645 
" clip-path="url(#pcecefb32db)" style="fill: none; stroke: #1f77b4; stroke-linecap: square"/>
   </g>
   <g id="patch_18">
    <path d="M 473.236364 256.32 
L 473.236364 191.096471 
" style="fill: none; stroke: #000000; stroke-width: 0.8; stroke-linejoin: miter; stroke-linecap: square"/>
   </g>
   <g id="patch_19">
    <path d="M 473.236364 256.32 
L 777.6 256.32 
" style="fill: none; stroke: #000000; stroke-width: 0.8; stroke-linejoin: miter; stroke-linecap: square"/>
   </g>
   <g id="legend_1">
    <g id="patch_20">
     <path d="M 478.836364 209.238971 
L 547.330114 209.238971 
Q 548.930114 209.238971 548.930114 207.638971 
L 548.930114 196.696471 
Q 548.930114 195.096471 547.330114 195.096471 
L 478.836364 195.096471 
Q 477.236364 195.096471 477.236364 196.696471 
L 477.236364 207.638971 
Q 477.236364 209.238971 478.836364 209.238971 
z
" style="fill: #ffffff; opacity: 0.8; stroke: #cccccc; stroke-linejoin: miter"/>
    </g>
    <g id="line2d_63">
     <path d="M 480.436364 201.575221 
L 488.436364 201.575221 
L 496.436364 201.575221 
" style="fill: none; stroke: #1f77b4; stroke-linecap: square"/>
    </g>
    <g id="text_37">
     <!-- Flight data -->
     <g transform="translate(502.836364 204.375221) scale(0.08 -0.08)">
      <defs>
       <path id="DejaVuSans-46" d="M 628 4666 
L 3309 4666 
L 3309 4134 
L 1259 4134 
L 1259 2759 
L 3109 2759 
L 3109 2228 
L 1259 2228 
L 1259 0 
L 628 0 
L 628 4666 
z
" transform="scale(0.015625)"/>
       <path id="DejaVuSans-6c" d="M 603 4863 
L 1178 4863 
L 1178 0 
L 603 0 
L 603 4863 
z
" transform="scale(0.015625)"/>
       <path id="DejaVuSans-67" d="M 2906 1791 
Q 2906 2416 2648 2759 
Q 2391 3103 1925 3103 
Q 1463 3103 1205 2759 
Q 947 2416 947 1791 
Q 947 1169 1205 825 
Q 1463 481 1925 481 
Q 2391 481 2648 825 
Q 2906 1169 2906 1791 
z
M 3481 434 
Q 3481 -459 3084 -895 
Q 2688 -1331 1869 -1331 
Q 1566 -1331 1297 -1286 
Q 1028 -1241 775 -1147 
L 775 -588 
Q 1028 -725 1275 -790 
Q 1522 -856 1778 -856 
Q 2344 -856 2625 -561 
Q 2906 -266 2906 331 
L 2906 616 
Q 2728 306 2450 153 
Q 2172 0 1784 0 
Q 1141 0 747 490 
Q 353 981 353 1791 
Q 353 2603 747 3093 
Q 1141 3584 1784 3584 
Q 2172 3584 2450 3431 
Q 2728 3278 2906 2969 
L 2906 3500 
L 3481 3500 
L 3481 434 
z
" transform="scale(0.015625)"/>
       <path id="DejaVuSans-68" d="M 3513 2113 
L 3513 0 
L 2938 0 
L 2938 2094 
Q 2938 2591 2744 2837 
Q 2550 3084 2163 3084 
Q 1697 3084 1428 2787 
Q 1159 2491 1159 1978 
L 1159 0 
L 581 0 
L 581 4863 
L 1159 4863 
L 1159 2956 
Q 1366 3272 1645 3428 
Q 1925 3584 2291 3584 
Q 2894 3584 3203 3211 
Q 3513 2838 3513 2113 
z
" transform="scale(0.015625)"/>
       <path id="DejaVuSans-74" d="M 1172 4494 
L 1172 3500 
L 2356 3500 
L 2356 3053 
L 1172 3053 
L 1172 1153 
Q 1172 725 1289 603 
Q 1406 481 1766 481 
L 2356 481 
L 2356 0 
L 1766 0 
Q 1100 0 847 248 
Q 594 497 594 1153 
L 594 3053 
L 172 3053 
L 172 3500 
L 594 3500 
L 594 4494 
L 1172 4494 
z
" transform="scale(0.015625)"/>
      </defs>
      <use xlink:href="#DejaVuSans-46"/>
      <use xlink:href="#DejaVuSans-6c" transform="translate(57.519531 0)"/>
      <use xlink:href="#DejaVuSans-69" transform="translate(85.302734 0)"/>
      <use xlink:href="#DejaVuSans-67" transform="translate(113.085938 0)"/>
      <use xlink:href="#DejaVuSans-68" transform="translate(176.5625 0)"/>
      <use xlink:href="#DejaVuSans-74" transform="translate(239.941406 0)"/>
      <use xlink:href="#DejaVuSans-20" transform="translate(279.150391 0)"/>
      <use xlink:href="#DejaVuSans-64" transform="translate(310.9375 0)"/>
      <use xlink:href="#DejaVuSans-61" transform="translate(374.414062 0)"/>
      <use xlink:href="#DejaVuSans-74" transform="translate(435.693359 0)"/>
      <use xlink:href="#DejaVuSans-61" transform="translate(474.902344 0)"/>
     </g>
    </g>
   </g>
  </g>
  <g id="text_38">
   <!-- Dynamic components for lateral model -->
   <g transform="translate(314.710312 14.878125) scale(0.12 -0.12)">
    <defs>
     <path id="DejaVuSans-44" d="M 1259 4147 
L 1259 519 
L 2022 519 
Q 2988 519 3436 956 
Q 3884 1394 3884 2338 
Q 3884 3275 3436 3711 
Q 2988 4147 2022 4147 
L 1259 4147 
z
M 628 4666 
L 1925 4666 
Q 3281 4666 3915 4102 
Q 4550 3538 4550 2338 
Q 4550 1131 3912 565 
Q 3275 0 1925 0 
L 628 0 
L 628 4666 
z
" transform="scale(0.015625)"/>
     <path id="DejaVuSans-79" d="M 2059 -325 
Q 1816 -950 1584 -1140 
Q 1353 -1331 966 -1331 
L 506 -1331 
L 506 -850 
L 844 -850 
Q 1081 -850 1212 -737 
Q 1344 -625 1503 -206 
L 1606 56 
L 191 3500 
L 800 3500 
L 1894 763 
L 2988 3500 
L 3597 3500 
L 2059 -325 
z
" transform="scale(0.015625)"/>
     <path id="DejaVuSans-6e" d="M 3513 2113 
L 3513 0 
L 2938 0 
L 2938 2094 
Q 2938 2591 2744 2837 
Q 2550 3084 2163 3084 
Q 1697 3084 1428 2787 
Q 1159 2491 1159 1978 
L 1159 0 
L 581 0 
L 581 3500 
L 1159 3500 
L 1159 2956 
Q 1366 3272 1645 3428 
Q 1925 3584 2291 3584 
Q 2894 3584 3203 3211 
Q 3513 2838 3513 2113 
z
" transform="scale(0.015625)"/>
     <path id="DejaVuSans-63" d="M 3122 3366 
L 3122 2828 
Q 2878 2963 2633 3030 
Q 2388 3097 2138 3097 
Q 1578 3097 1268 2742 
Q 959 2388 959 1747 
Q 959 1106 1268 751 
Q 1578 397 2138 397 
Q 2388 397 2633 464 
Q 2878 531 3122 666 
L 3122 134 
Q 2881 22 2623 -34 
Q 2366 -91 2075 -91 
Q 1284 -91 818 406 
Q 353 903 353 1747 
Q 353 2603 823 3093 
Q 1294 3584 2113 3584 
Q 2378 3584 2631 3529 
Q 2884 3475 3122 3366 
z
" transform="scale(0.015625)"/>
     <path id="DejaVuSans-6f" d="M 1959 3097 
Q 1497 3097 1228 2736 
Q 959 2375 959 1747 
Q 959 1119 1226 758 
Q 1494 397 1959 397 
Q 2419 397 2687 759 
Q 2956 1122 2956 1747 
Q 2956 2369 2687 2733 
Q 2419 3097 1959 3097 
z
M 1959 3584 
Q 2709 3584 3137 3096 
Q 3566 2609 3566 1747 
Q 3566 888 3137 398 
Q 2709 -91 1959 -91 
Q 1206 -91 779 398 
Q 353 888 353 1747 
Q 353 2609 779 3096 
Q 1206 3584 1959 3584 
z
" transform="scale(0.015625)"/>
     <path id="DejaVuSans-70" d="M 1159 525 
L 1159 -1331 
L 581 -1331 
L 581 3500 
L 1159 3500 
L 1159 2969 
Q 1341 3281 1617 3432 
Q 1894 3584 2278 3584 
Q 2916 3584 3314 3078 
Q 3713 2572 3713 1747 
Q 3713 922 3314 415 
Q 2916 -91 2278 -91 
Q 1894 -91 1617 61 
Q 1341 213 1159 525 
z
M 3116 1747 
Q 3116 2381 2855 2742 
Q 2594 3103 2138 3103 
Q 1681 3103 1420 2742 
Q 1159 2381 1159 1747 
Q 1159 1113 1420 752 
Q 1681 391 2138 391 
Q 2594 391 2855 752 
Q 3116 1113 3116 1747 
z
" transform="scale(0.015625)"/>
     <path id="DejaVuSans-66" d="M 2375 4863 
L 2375 4384 
L 1825 4384 
Q 1516 4384 1395 4259 
Q 1275 4134 1275 3809 
L 1275 3500 
L 2222 3500 
L 2222 3053 
L 1275 3053 
L 1275 0 
L 697 0 
L 697 3053 
L 147 3053 
L 147 3500 
L 697 3500 
L 697 3744 
Q 697 4328 969 4595 
Q 1241 4863 1831 4863 
L 2375 4863 
z
" transform="scale(0.015625)"/>
    </defs>
    <use xlink:href="#DejaVuSans-44"/>
    <use xlink:href="#DejaVuSans-79" transform="translate(77.001953 0)"/>
    <use xlink:href="#DejaVuSans-6e" transform="translate(136.181641 0)"/>
    <use xlink:href="#DejaVuSans-61" transform="translate(199.560547 0)"/>
    <use xlink:href="#DejaVuSans-6d" transform="translate(260.839844 0)"/>
    <use xlink:href="#DejaVuSans-69" transform="translate(358.251953 0)"/>
    <use xlink:href="#DejaVuSans-63" transform="translate(386.035156 0)"/>
    <use xlink:href="#DejaVuSans-20" transform="translate(441.015625 0)"/>
    <use xlink:href="#DejaVuSans-63" transform="translate(472.802734 0)"/>
    <use xlink:href="#DejaVuSans-6f" transform="translate(527.783203 0)"/>
    <use xlink:href="#DejaVuSans-6d" transform="translate(588.964844 0)"/>
    <use xlink:href="#DejaVuSans-70" transform="translate(686.376953 0)"/>
    <use xlink:href="#DejaVuSans-6f" transform="translate(749.853516 0)"/>
    <use xlink:href="#DejaVuSans-6e" transform="translate(811.035156 0)"/>
    <use xlink:href="#DejaVuSans-65" transform="translate(874.414062 0)"/>
    <use xlink:href="#DejaVuSans-6e" transform="translate(935.9375 0)"/>
    <use xlink:href="#DejaVuSans-74" transform="translate(999.316406 0)"/>
    <use xlink:href="#DejaVuSans-73" transform="translate(1038.525391 0)"/>
    <use xlink:href="#DejaVuSans-20" transform="translate(1090.625 0)"/>
    <use xlink:href="#DejaVuSans-66" transform="translate(1122.412109 0)"/>
    <use xlink:href="#DejaVuSans-6f" transform="translate(1157.617188 0)"/>
    <use xlink:href="#DejaVuSans-72" transform="translate(1218.798828 0)"/>
    <use xlink:href="#DejaVuSans-20" transform="translate(1259.912109 0)"/>
    <use xlink:href="#DejaVuSans-6c" transform="translate(1291.699219 0)"/>
    <use xlink:href="#DejaVuSans-61" transform="translate(1319.482422 0)"/>
    <use xlink:href="#DejaVuSans-74" transform="translate(1380.761719 0)"/>
    <use xlink:href="#DejaVuSans-65" transform="translate(1419.970703 0)"/>
    <use xlink:href="#DejaVuSans-72" transform="translate(1481.494141 0)"/>
    <use xlink:href="#DejaVuSans-61" transform="translate(1522.607422 0)"/>
    <use xlink:href="#DejaVuSans-6c" transform="translate(1583.886719 0)"/>
    <use xlink:href="#DejaVuSans-20" transform="translate(1611.669922 0)"/>
    <use xlink:href="#DejaVuSans-6d" transform="translate(1643.457031 0)"/>
    <use xlink:href="#DejaVuSans-6f" transform="translate(1740.869141 0)"/>
    <use xlink:href="#DejaVuSans-64" transform="translate(1802.050781 0)"/>
    <use xlink:href="#DejaVuSans-65" transform="translate(1865.527344 0)"/>
    <use xlink:href="#DejaVuSans-6c" transform="translate(1927.050781 0)"/>
   </g>
  </g>
 </g>
 <defs>
  <clipPath id="pb28024e9a7">
   <rect x="108" y="34.56" width="304.363636" height="65.223529"/>
  </clipPath>
  <clipPath id="p808015d2fb">
   <rect x="473.236364" y="34.56" width="304.363636" height="65.223529"/>
  </clipPath>
  <clipPath id="pea4b287512">
   <rect x="108" y="112.828235" width="304.363636" height="65.223529"/>
  </clipPath>
  <clipPath id="p2a33612f25">
   <rect x="473.236364" y="112.828235" width="304.363636" height="65.223529"/>
  </clipPath>
  <clipPath id="pe324ee287c">
   <rect x="108" y="191.096471" width="304.363636" height="65.223529"/>
  </clipPath>
  <clipPath id="pcecefb32db">
   <rect x="473.236364" y="191.096471" width="304.363636" height="65.223529"/>
  </clipPath>
 </defs>
</svg>
